<?xml version="1.0" standalone="no"?>
<!DOCTYPE svg PUBLIC "-//W3C//DTD SVG 20010904//EN"
 "http://www.w3.org/TR/2001/REC-SVG-20010904/DTD/svg10.dtd">
<svg version="1.0" xmlns="http://www.w3.org/2000/svg"
 width="640.000000pt" height="897.000000pt" viewBox="0 0 640.000000 897.000000"
 preserveAspectRatio="xMidYMid meet">

<g transform="translate(0.000000,897.000000) scale(0.100000,-0.100000)"
fill="#000000" stroke="none">
<path d="M1 8618 c1 -194 4 -342 8 -328 6 23 30 36 32 17 2 -24 -15 -67 -27
-67 -11 0 -14 -28 -14 -156 0 -155 0 -156 25 -176 28 -22 33 -48 10 -48 -8 0
-15 7 -15 15 0 8 -4 15 -10 15 -16 0 -12 -57 5 -64 20 -7 20 -65 0 -72 -13 -5
-15 -210 -15 -1704 0 -1563 1 -1698 16 -1704 14 -5 16 -16 10 -61 -3 -30 -4
-55 -1 -55 2 0 16 23 31 51 18 36 29 48 36 41 11 -11 -66 -162 -83 -162 -5 0
-9 -75 -9 -177 0 -138 3 -174 12 -165 18 18 52 15 81 -8 l25 -20 12 50 c8 33
17 50 27 50 18 0 16 -8 -28 -152 -16 -54 -34 -98 -39 -98 -6 0 -10 4 -10 8 0
4 -18 8 -40 7 l-40 0 0 -152 c0 -96 4 -153 10 -153 6 0 10 -5 10 -11 0 -5 -4
-7 -10 -4 -6 4 -10 -180 -10 -519 l0 -525 35 6 c28 4 35 2 35 -11 0 -12 -9
-16 -35 -16 l-35 0 0 -490 c0 -429 2 -490 15 -490 8 0 15 -4 15 -10 0 -5 -7
-10 -15 -10 -13 0 -15 -82 -15 -635 l0 -635 201 0 201 0 -6 26 c-7 27 18 128
38 156 23 31 65 47 96 36 52 -18 62 -94 24 -184 l-14 -34 102 1 103 1 -73 21
c-44 13 -72 27 -72 35 0 8 6 12 13 9 7 -3 42 -13 78 -22 35 -10 69 -24 75 -31
7 -9 32 -14 66 -14 51 0 56 2 60 25 6 29 7 28 -27 15 -41 -16 -26 10 21 37 50
29 58 29 50 -2 -3 -14 -9 -36 -12 -50 l-6 -25 99 0 c72 0 105 4 119 15 25 19
45 19 38 0 -5 -13 289 -15 2610 -15 l2616 0 0 875 c0 864 0 874 -20 885 -11 6
-20 20 -20 30 0 25 9 25 26 3 11 -15 13 88 14 589 0 539 -1 607 -15 602 -12
-5 -14 0 -9 27 4 19 11 39 15 45 5 6 9 978 8 2170 0 1187 -3 2153 -6 2147 -2
-7 -12 -13 -20 -13 -13 0 -15 11 -9 73 l6 72 -32 -62 c-40 -77 -58 -82 -58
-14 0 82 11 140 25 134 10 -3 12 -21 9 -61 l-5 -57 26 48 c17 32 32 47 45 47
20 0 20 9 20 715 l0 715 -730 0 -730 0 0 -30 c0 -35 -7 -36 -75 -15 -27 8 -51
12 -53 10 -10 -10 -3 -58 9 -66 20 -13 67 -11 71 3 2 6 10 8 16 4 16 -10 6
-25 -24 -37 -18 -6 -35 -5 -59 5 -38 16 -51 47 -41 96 5 28 3 30 -24 30 -20 0
-30 -5 -30 -15 0 -20 -47 -65 -68 -65 -10 0 -29 8 -42 17 -14 10 -32 16 -41
15 -13 -2 -15 3 -11 24 5 26 4 26 -39 20 -24 -4 -55 -6 -69 -5 -14 0 -251 3
-527 5 -373 3 -504 1 -509 -8 -4 -6 -8 -23 -9 -37 -2 -25 -44 -126 -45 -108 0
5 -7 1 -16 -7 -21 -22 -60 -20 -84 4 -15 15 -19 30 -16 72 1 29 6 61 10 71 8
16 -2 17 -124 17 l-131 0 -34 -36 c-29 -30 -39 -35 -62 -30 -16 4 -40 20 -54
36 l-25 30 -1417 0 -1417 0 1 -352z m3069 256 c0 -9 -5 -14 -12 -12 -18 6 -21
28 -4 28 9 0 16 -7 16 -16z m2231 0 c19 -9 29 -21 25 -29 -3 -8 0 -16 7 -19 9
-3 9 -5 -1 -5 -7 -1 -17 10 -21 23 -21 53 -89 35 -107 -29 -9 -33 -8 -42 5
-56 22 -22 68 -30 82 -13 6 8 16 14 22 14 6 0 1 -9 -10 -19 -12 -12 -34 -19
-52 -19 -66 2 -93 93 -44 143 30 29 52 31 94 9z m-3031 -11 c0 -5 -4 -14 -9
-22 -11 -17 -32 -5 -24 14 5 15 33 21 33 8z m-262 -23 c13 -12 22 -33 22 -50
0 -35 -13 -37 -83 -16 -40 12 -46 12 -52 -2 -8 -21 22 -62 45 -62 11 0 29 5
40 12 29 19 38 -1 10 -24 -28 -22 -72 -19 -102 9 -23 21 -23 32 6 98 23 51 27
55 59 55 20 0 42 -8 55 -20z m3452 -20 c0 -5 -2 -10 -4 -10 -3 0 -8 5 -11 10
-3 6 -1 10 4 10 6 0 11 -4 11 -10z m-460 -10 c0 -5 -7 -10 -16 -10 -8 0 -12 5
-9 10 3 6 10 10 16 10 5 0 9 -4 9 -10z m505 0 c3 -6 -1 -7 -9 -4 -18 7 -21 14
-7 14 6 0 13 -4 16 -10z m-95 -26 c0 -14 -4 -23 -10 -19 -5 3 -10 1 -10 -6 0
-7 -2 -10 -5 -7 -6 5 15 58 22 58 1 0 3 -12 3 -26z m120 -4 c0 -5 -2 -10 -4
-10 -3 0 -8 5 -11 10 -3 6 -1 10 4 10 6 0 11 -4 11 -10z m-3290 -7 c0 -29 -47
-163 -57 -163 -18 0 -16 14 8 98 13 43 27 72 35 72 8 0 14 -3 14 -7z m483 -72
c-3 -14 -10 -36 -14 -49 -14 -36 -11 -42 15 -31 29 14 79 -7 84 -35 6 -28 -31
-146 -45 -146 -17 0 -16 13 3 76 21 63 14 84 -24 84 -36 0 -57 -22 -74 -82 -9
-34 -17 -45 -26 -39 -18 11 55 262 74 254 9 -3 12 -14 7 -32z m2674 -3 c-3 -8
-6 -5 -6 6 -1 11 2 17 5 13 3 -3 4 -12 1 -19z m-2889 -3 c12 -9 29 -15 38 -13
9 2 19 -3 22 -11 3 -9 -1 -11 -17 -6 -17 5 -21 2 -21 -16 0 -48 -54 -74 -101
-49 -15 8 -19 7 -19 -4 0 -8 20 -22 45 -32 48 -18 69 -42 59 -68 -14 -36 -92
-30 -140 10 l-29 24 22 19 c15 12 20 25 16 40 -3 14 0 23 11 27 9 4 16 18 16
34 0 54 51 77 98 45z m3006 1 c-3 -8 -13 -17 -22 -21 -13 -5 -13 -2 3 15 21
24 26 25 19 6z m-4704 -63 c-11 -17 -11 -17 -6 0 3 10 6 24 7 30 0 9 2 9 5 0
3 -7 0 -20 -6 -30z m95 -30 c-16 -15 -29 -29 -27 -32 2 -3 -1 -7 -7 -9 -16 -5
-13 6 11 38 11 16 26 26 31 23 7 -4 8 1 3 13 -6 16 -5 17 6 6 11 -11 8 -18
-17 -39z m158 -61 c-15 -51 -31 -88 -36 -83 -5 5 4 49 19 100 16 54 31 88 36
83 5 -5 -2 -47 -19 -100z m-246 46 c-3 -8 -6 -5 -6 6 -1 11 2 17 5 13 3 -3 4
-12 1 -19z m2197 -8 c-6 -25 -3 -31 20 -40 32 -12 36 -34 4 -25 -13 4 -27 8
-32 9 -11 1 -42 -111 -33 -120 3 -3 20 -9 36 -13 23 -5 28 -9 21 -21 -8 -12
-14 -12 -45 3 -46 22 -51 38 -31 101 20 66 21 63 -9 70 -36 9 -32 29 5 21 26
-6 30 -3 36 19 9 38 35 34 28 -4z m-2190 -36 c-1 -14 -5 -28 -8 -31 -4 -4 -2
45 3 55 5 10 8 -3 5 -24z m481 -9 c28 -27 33 -63 10 -71 -8 -3 -36 1 -62 10
-56 19 -72 10 -57 -31 7 -22 17 -29 43 -31 19 -2 37 2 41 9 4 6 13 8 19 4 16
-10 -3 -31 -34 -39 -34 -9 -83 18 -91 49 -24 95 67 165 131 100z m-445 6 c0
-5 -6 -14 -14 -20 -12 -10 -13 -8 -9 8 5 21 23 30 23 12z m2498 -76 c3 -3 3
-7 0 -10 -9 -10 -168 39 -168 51 0 8 28 4 82 -12 44 -13 83 -26 86 -29z
m-2545 20 c-3 -9 -8 -14 -10 -11 -3 3 -2 9 2 15 9 16 15 13 8 -4z m631 -56
c77 -22 115 -46 58 -36 -63 12 -142 39 -142 48 0 12 3 12 84 -12z m1811 -31
c41 -12 75 -26 75 -30 0 -12 -15 -10 -96 14 -41 11 -74 25 -74 30 0 12 13 10
95 -14z m-1376 -19 c34 -12 51 -35 51 -69 0 -30 -24 -35 -77 -15 -38 15 -47
15 -54 4 -13 -20 -11 -27 11 -49 23 -23 50 -26 68 -8 9 9 15 9 23 1 8 -8 4
-16 -15 -28 -30 -20 -76 -13 -102 16 -34 38 -17 125 30 147 28 14 28 14 65 1z
m141 -55 c0 -11 6 -14 20 -9 36 12 79 -4 86 -32 7 -27 -23 -153 -37 -153 -17
0 -17 18 -2 77 14 51 15 64 4 77 -8 9 -19 16 -26 16 -27 0 -63 -41 -74 -85 -7
-28 -17 -45 -26 -45 -8 0 -15 3 -15 8 0 6 34 118 45 150 6 17 25 15 25 -4z
m1750 -12 c0 -15 -60 -53 -73 -46 -6 4 -5 0 3 -8 18 -19 79 -40 91 -32 5 3 9
13 9 23 0 9 7 26 16 37 14 18 15 16 9 -25 -4 -35 -2 -46 12 -57 17 -12 16 -13
-8 -14 -20 0 -28 -6 -33 -25 -9 -36 -27 -31 -24 6 3 30 1 33 -49 47 -30 8 -53
20 -53 28 0 7 19 26 43 43 44 31 57 37 57 23z m-1320 -6 c0 -3 -4 -15 -9 -28
-4 -13 -11 -36 -15 -52 -7 -27 -5 -28 19 -22 21 5 32 0 57 -24 25 -26 29 -36
24 -62 -14 -69 -62 -107 -111 -88 -14 5 -25 14 -25 19 0 5 -9 7 -20 4 -23 -6
-25 8 -10 53 5 16 21 68 35 117 17 57 31 87 41 87 8 0 14 -2 14 -4z m-2335
-43 c-7 -32 -19 -47 -32 -42 -16 6 6 69 23 69 13 0 15 -6 9 -27z m655 22 c0
-3 -4 -13 -9 -23 -9 -19 -24 -64 -41 -130 -6 -25 -15 -40 -22 -36 -6 4 -6 9
-1 13 6 3 10 13 11 21 1 18 4 28 26 103 10 31 22 57 27 57 5 0 9 -2 9 -5z
m1515 -29 c41 -17 45 -41 20 -121 -8 -27 -12 -52 -9 -57 3 -4 -2 -8 -11 -8 -8
0 -18 6 -21 13 -3 8 -16 12 -34 9 -40 -6 -84 37 -71 70 7 20 16 23 70 26 53 3
61 6 61 22 0 23 -44 38 -63 22 -8 -7 -18 -7 -27 -2 -16 10 -15 12 15 28 26 15
29 15 70 -2z m-2099 -18 c-3 -13 -6 -26 -6 -30 0 -5 -7 -8 -15 -8 -17 0 -18 4
-9 38 4 12 13 22 21 22 11 0 14 -6 9 -22z m2520 -25 c-27 -95 -68 -221 -75
-233 -19 -29 -24 2 -8 53 8 28 25 85 37 125 14 47 27 72 37 72 9 0 12 -6 9
-17z m1297 11 c3 -3 -3 -14 -14 -25 -23 -23 -25 -81 -5 -98 8 -7 30 -11 48 -9
29 3 35 8 48 46 15 44 30 55 30 22 0 -58 -58 -108 -106 -90 -36 14 -64 47 -64
77 0 48 41 98 63 77z m2011 -88 c-10 -47 -42 -104 -65 -116 -29 -16 -73 -9
-77 13 -3 15 0 18 17 12 12 -3 30 -4 40 0 18 6 61 89 61 119 0 10 6 13 16 9
11 -4 13 -13 8 -37z m76 -6 c0 -5 11 -10 25 -10 35 0 74 -20 81 -42 8 -28 -6
-80 -29 -105 -24 -27 -78 -31 -101 -7 -17 16 -19 13 -37 -43 -2 -7 -9 -9 -16
-5 -17 11 44 222 64 222 7 0 13 -4 13 -10z m-3182 -76 c24 -27 27 -41 13 -62
-7 -11 -17 -11 -61 2 -29 9 -56 13 -61 10 -18 -11 -8 -44 16 -60 21 -14 31
-15 51 -5 49 22 64 2 16 -23 -36 -19 -78 -10 -102 22 -24 30 -25 63 -4 103 28
54 89 60 132 13z m-2205 20 c-7 -3 -9 -12 -6 -20 3 -8 -1 -14 -10 -14 -10 0
-13 7 -10 20 3 11 13 20 22 19 9 0 11 -3 4 -5z m2534 -33 c-3 -16 -9 -41 -13
-55 -6 -25 -4 -26 18 -21 16 4 33 -1 51 -15 37 -30 39 -99 2 -135 -30 -31 -75
-33 -100 -5 -14 15 -20 17 -26 8 -4 -7 -11 -9 -15 -5 -13 12 61 257 78 257 6
0 8 -12 5 -29z m3078 -18 c6 -24 7 -25 26 -7 14 13 22 15 30 7 8 -8 6 -15 -10
-25 -25 -15 -26 -31 -6 -87 8 -22 11 -41 7 -41 -17 1 -30 17 -41 53 l-13 37
-30 -25 c-29 -25 -58 -33 -58 -16 0 4 18 21 40 36 26 18 39 34 35 43 -16 43
-17 62 -2 56 8 -3 18 -17 22 -31z m-4975 -9 c0 -9 -5 -14 -12 -12 -18 6 -21
28 -4 28 9 0 16 -7 16 -16z m1728 -19 c45 -12 72 -25 72 -33 0 -9 -6 -12 -15
-8 -9 3 -47 15 -85 27 -39 11 -70 25 -70 31 0 5 6 8 13 6 6 -2 45 -12 85 -23z
m408 -100 c10 -8 31 -15 47 -15 15 0 27 -5 27 -11 0 -6 -8 -8 -18 -5 -14 5
-21 -2 -31 -29 -14 -40 -52 -56 -84 -36 -16 10 -21 10 -28 -1 -6 -9 6 -20 44
-38 41 -20 52 -30 52 -49 0 -13 -7 -28 -16 -34 -23 -15 -85 0 -116 28 l-28 25
22 19 c14 12 20 25 17 38 -4 13 0 22 10 26 10 4 16 18 16 36 0 20 8 35 22 45
28 20 39 20 64 1z m-2176 -21 c0 -17 -22 -14 -28 4 -2 7 3 12 12 12 9 0 16 -7
16 -16z m-1067 -31 c21 -20 24 -83 3 -83 -7 0 -33 7 -56 15 -56 20 -60 19 -60
-9 0 -42 56 -76 75 -46 10 16 45 12 39 -4 -9 -24 -60 -36 -94 -24 -36 12 -50
35 -50 80 0 81 85 123 143 71z m1716 2 c31 -16 46 -41 30 -51 -6 -3 -17 4 -26
15 -10 15 -23 21 -41 19 -38 -4 -33 -25 13 -57 48 -32 54 -52 25 -81 -24 -24
-55 -22 -97 6 -23 14 -32 54 -13 54 6 0 10 -4 10 -9 0 -33 72 -56 83 -27 6 15
-9 30 -55 59 -31 19 -36 48 -12 71 19 20 47 20 83 1z m1684 -15 c-5 -21 11
-28 22 -10 3 6 19 10 36 10 16 0 29 -4 29 -10 0 -5 -8 -10 -19 -10 -10 0 -32
-5 -49 -11 -25 -9 -34 -20 -44 -52 -12 -46 -24 -64 -34 -54 -10 10 38 157 52
157 7 0 10 -8 7 -20z m-3269 -42 c-5 -17 -3 -18 14 -9 12 6 33 11 47 11 40 0
25 -24 -19 -31 -45 -7 -59 -21 -75 -76 -11 -41 -24 -53 -35 -35 -3 5 7 45 21
89 18 61 29 80 39 76 9 -3 12 -13 8 -25z m3550 -52 c21 -44 7 -86 -37 -109
-39 -20 -59 -18 -92 13 -42 39 -28 111 27 134 43 19 82 4 102 -38z m1980 45
c4 -5 3 -16 0 -24 -8 -22 -33 -10 -27 14 6 20 18 25 27 10z m-5344 -102 l5
-74 44 62 c27 38 49 59 57 56 16 -6 15 -9 -46 -91 -51 -69 -74 -78 -84 -31
-11 58 -7 161 7 157 7 -3 14 -32 17 -79z m460 47 c0 -16 -32 -76 -41 -76 -10
0 -4 52 8 73 4 7 33 10 33 3z m2986 -61 c-13 -35 -19 -62 -15 -59 5 3 9 -1 9
-10 0 -8 6 -17 13 -19 7 -4 6 -6 -4 -6 -36 -2 -42 25 -24 94 11 39 23 65 31
65 10 0 8 -16 -10 -65z m-2926 41 c0 -15 -32 -76 -40 -76 -13 0 -13 10 1 49 6
17 17 31 25 31 8 0 14 -2 14 -4z m4800 -22 c0 -37 -43 -154 -56 -154 -8 0 -14
3 -14 6 0 10 41 147 47 157 8 13 23 7 23 -9z m-5038 -21 c18 -16 26 -83 10
-83 -5 0 -31 7 -58 15 -65 20 -64 20 -64 -15 0 -40 38 -60 75 -40 26 14 42 9
30 -10 -14 -22 -49 -28 -85 -13 -43 17 -50 28 -50 80 0 78 85 118 142 66z
m1648 16 c0 -6 7 -8 16 -5 18 7 11 -8 -18 -40 -11 -12 -21 -37 -23 -55 -1 -19
-10 -47 -19 -64 -9 -16 -16 -36 -16 -42 0 -15 -16 -17 -25 -3 -10 16 56 220
72 220 7 0 13 -5 13 -11z m-1271 -89 c30 -50 52 -92 50 -93 -45 -25 -183 -87
-187 -83 -8 8 -6 9 78 51 41 21 76 39 78 40 4 4 -41 92 -67 130 -22 32 -26 45
-13 45 4 0 32 -41 61 -90z m2921 80 c0 -5 -5 -10 -11 -10 -6 0 -9 -7 -6 -15 4
-8 2 -17 -4 -20 -5 -4 -6 -11 -3 -17 5 -7 2 -8 -6 -3 -9 5 -10 2 -6 -12 3 -10
0 -27 -7 -38 -13 -17 -14 -16 -12 11 1 16 7 40 13 54 6 14 13 33 16 43 6 18
26 24 26 7z m80 -15 c0 -13 4 -14 20 -5 11 6 20 8 20 6 0 -3 -14 -13 -31 -21
-17 -9 -28 -19 -25 -22 3 -3 -1 -15 -9 -27 -8 -11 -15 -31 -15 -43 0 -13 -5
-23 -11 -23 -6 0 -9 6 -6 13 2 6 10 30 18 52 8 22 18 43 23 46 5 4 6 14 3 23
-4 9 -2 16 3 16 6 0 10 -7 10 -15z m1960 -65 c6 -10 10 -30 10 -44 0 -30 -13
-32 -82 -12 -41 13 -47 13 -52 -1 -9 -22 20 -63 44 -63 11 0 29 5 40 12 29 19
38 -1 10 -24 -29 -23 -74 -18 -105 12 -42 43 -10 143 49 152 31 5 75 -11 86
-32z m-4754 -67 l-86 -43 16 -33 c9 -17 30 -51 46 -75 16 -23 28 -48 25 -55
-3 -10 -29 26 -95 134 l-22 36 93 45 c50 25 96 43 101 40 5 -3 -30 -25 -78
-49z m2634 47 c-8 -5 -19 -10 -25 -10 -5 0 -3 5 5 10 8 5 20 10 25 10 6 0 3
-5 -5 -10z m-892 -86 c12 -8 22 -24 22 -35 0 -39 -33 -139 -47 -139 -7 0 -13
5 -13 10 0 6 -18 10 -40 10 -31 0 -43 5 -56 25 -15 23 -15 27 1 51 15 23 22
25 68 22 46 -3 52 -1 52 17 0 17 -6 20 -47 18 -49 -1 -57 4 -36 25 17 17 69
15 96 -4z m-1533 -59 c26 -25 32 -45 15 -45 -5 0 -14 8 -19 19 -13 24 -57 33
-72 15 -13 -16 4 -44 25 -44 7 0 23 -11 36 -25 20 -21 22 -28 12 -50 -9 -19
-19 -25 -42 -25 -43 0 -90 26 -90 50 0 26 8 25 37 -6 14 -16 32 -24 46 -22 34
5 33 34 -1 52 -60 31 -76 61 -46 90 23 24 71 20 99 -9z m171 -9 c-6 -32 -5
-35 24 -41 42 -9 39 -29 -4 -21 -34 6 -34 6 -51 -44 -20 -61 -16 -76 25 -85
22 -5 29 -10 22 -17 -16 -16 -60 -1 -77 25 -13 21 -13 29 0 75 17 55 14 72
-11 72 -8 0 -14 5 -14 11 0 7 10 9 25 7 19 -4 26 0 34 23 14 42 35 38 27 -5z
m-1138 -68 c17 -17 15 -48 -3 -48 -8 0 -15 8 -15 18 0 10 -5 23 -12 30 -9 9
-9 12 3 12 8 0 20 -5 27 -12z m1568 -15 c-52 -179 -71 -233 -84 -233 -8 0 -12
6 -9 13 2 6 19 63 37 125 22 74 38 112 47 112 9 0 12 -7 9 -17z m-285 -20 c0
-33 10 -117 14 -121 1 -1 19 22 40 53 23 33 46 55 57 55 13 0 3 -20 -47 -83
-74 -97 -88 -110 -111 -105 -29 5 -29 28 0 28 14 0 26 6 27 13 2 31 -2 125 -8
155 -4 25 -2 32 11 32 11 0 16 -9 17 -27z m1821 -20 c20 -18 24 -43 7 -43 -5
0 -8 4 -4 10 3 5 -5 16 -19 25 -29 19 -72 11 -86 -15 -35 -66 26 -142 75 -94
9 9 19 13 22 10 10 -10 -18 -34 -48 -41 -34 -8 -89 36 -89 71 0 31 25 80 47
94 23 13 71 5 95 -17z m-2802 -71 c0 -8 -43 -32 -55 -32 -14 0 -2 18 18 28 28
13 37 14 37 4z m1464 -37 c26 -24 32 -49 18 -73 -7 -9 -20 -8 -65 7 -36 13
-59 16 -63 10 -10 -17 5 -58 26 -69 22 -12 60 -5 60 10 0 5 7 7 15 3 14 -5 14
-8 -1 -24 -26 -28 -71 -24 -105 10 -33 33 -35 47 -15 95 25 60 84 74 130 31z
m171 -9 c-6 -32 -5 -34 25 -41 20 -4 28 -11 23 -16 -6 -6 -20 -6 -37 1 -29 11
-28 13 -45 -55 -16 -58 -14 -65 19 -76 17 -6 30 -15 30 -20 0 -22 -65 2 -79
30 -8 14 -7 32 4 68 19 63 19 70 -5 76 -11 3 -20 10 -20 16 0 7 8 7 24 1 22
-8 26 -5 35 21 14 41 34 38 26 -5z m-1457 -36 c-18 -16 -35 -27 -37 -24 -8 7
51 64 61 58 5 -3 -6 -19 -24 -34z m1603 -97 c1 -96 8 -101 54 -38 22 30 45 55
53 55 16 0 14 -3 -60 -101 -58 -78 -77 -93 -103 -83 -24 10 -17 24 11 24 l27
0 -6 100 c-4 82 -3 100 9 100 10 0 14 -15 15 -57z m-1282 -20 c-1 -33 -13 -53
-27 -44 -10 6 -10 14 -3 34 12 30 31 36 30 10z m1476 6 c-5 -7 4 -8 28 -4 29
6 37 3 56 -20 30 -40 27 -86 -8 -124 -34 -36 -49 -38 -84 -11 -33 26 -35 26
-43 -15 -3 -20 -12 -35 -20 -35 -18 0 -19 -9 16 104 33 107 37 116 51 116 6 0
7 -5 4 -11z m279 -80 c17 -14 26 -30 26 -50 0 -34 -1 -34 -66 -14 -64 19 -64
19 -64 -12 0 -34 26 -63 59 -63 17 0 22 -3 15 -10 -24 -24 -104 31 -104 72 0
21 26 67 49 86 22 18 55 15 85 -9z m-1704 1 c0 -5 -4 -10 -10 -10 -5 0 -10 5
-10 10 0 6 5 10 10 10 6 0 10 -4 10 -10z m362 -82 c-11 -34 -28 -89 -37 -120
-10 -39 -21 -58 -31 -58 -10 0 -14 6 -10 18 23 80 70 229 73 235 3 5 10 4 15
-1 7 -7 3 -31 -10 -74z m1453 72 c3 -5 1 -10 -4 -10 -6 0 -11 5 -11 10 0 6 2
10 4 10 3 0 8 -4 11 -10z m268 4 c3 -4 -1 -20 -9 -36 -19 -36 -26 -32 -18 10
6 31 14 39 27 26z m-1988 -72 c3 -32 7 -64 8 -72 2 -9 21 10 45 43 41 55 52
64 65 51 9 -9 -124 -182 -145 -189 -25 -9 -58 4 -52 19 3 8 15 11 31 8 l26 -5
-5 106 c-5 85 -3 105 7 100 8 -3 16 -28 20 -61z m1820 42 c17 -7 26 -13 21
-14 -16 0 -91 23 -101 32 -12 12 38 0 80 -18z m226 12 c12 7 11 0 -3 -31 -6
-14 -15 -25 -20 -25 -5 0 -6 6 -1 13 4 6 7 23 5 37 -1 14 1 19 4 12 3 -6 10
-10 15 -6z m-335 -93 c-6 -6 -36 9 -36 18 0 5 9 4 20 -3 10 -7 18 -14 16 -15z
m-1074 -31 c15 -26 38 -65 52 -88 l25 -40 -94 -47 c-52 -25 -97 -42 -100 -37
-6 10 116 70 142 70 29 0 23 32 -21 105 -48 79 -51 85 -38 85 4 0 19 -22 34
-48z m975 12 c-9 -9 -28 6 -21 18 4 6 10 6 17 -1 6 -6 8 -13 4 -17z m2303 17
c0 -12 -20 -25 -27 -18 -7 7 6 27 18 27 5 0 9 -4 9 -9z m-2120 -11 c13 -9 13
-10 0 -9 -8 1 -26 5 -40 9 l-25 8 25 1 c14 0 32 -4 40 -9z m-1920 -15 c0 -9
-9 -15 -25 -15 -16 0 -25 6 -25 15 0 9 9 15 25 15 16 0 25 -6 25 -15z m4091
-8 c-13 -13 -26 -3 -16 12 3 6 11 8 17 5 6 -4 6 -10 -1 -17z m-3486 -22 c23
-22 33 -64 19 -77 -3 -3 -32 2 -64 12 -52 16 -59 16 -65 2 -15 -40 52 -81 83
-50 8 8 15 9 23 1 16 -16 -17 -43 -51 -43 -16 0 -41 11 -57 24 -22 19 -28 32
-28 66 0 34 6 47 28 66 37 31 81 31 112 -1z m1685 -15 c0 -5 -5 -10 -11 -10
-5 0 -7 5 -4 10 3 6 8 10 11 10 2 0 4 -4 4 -10z m-1093 -87 c-13 -75 -62 -223
-74 -223 -17 0 -17 3 11 90 14 41 30 94 36 118 12 46 35 59 27 15z m-192 -18
c28 -27 32 -45 11 -45 -7 0 -16 9 -19 20 -3 10 -17 22 -33 26 -22 6 -32 2 -51
-20 -13 -15 -23 -37 -23 -48 0 -48 62 -77 90 -43 10 12 16 13 24 5 15 -15 -28
-50 -61 -50 -30 0 -83 51 -83 80 0 28 26 77 47 89 31 18 73 12 98 -14z m3585
-56 c0 -5 4 -8 9 -4 16 9 90 -26 96 -45 7 -23 -11 -94 -28 -108 -27 -23 -62
-24 -89 -2 -28 22 -32 20 -42 -22 -6 -27 -20 -36 -30 -20 -9 15 57 212 71 212
7 0 13 -5 13 -11z m-4696 -14 c41 -42 27 -88 -44 -144 -29 -23 -56 -41 -61
-41 -17 0 9 36 46 64 46 35 58 64 39 93 -25 40 -12 59 20 28z m1490 -31 c34
-13 38 -42 19 -115 -17 -67 -28 -83 -39 -56 -3 8 -17 11 -38 9 -41 -5 -79 26
-69 55 12 36 26 43 79 43 29 0 56 5 60 12 12 19 -28 40 -63 33 -31 -5 -42 3
-26 18 8 9 56 9 77 1z m214 -73 c24 -21 29 -41 10 -41 -6 0 -8 3 -5 7 12 11
-27 32 -59 33 -28 0 -31 -3 -27 -25 3 -13 15 -27 26 -31 52 -16 71 -73 32 -94
-18 -10 -31 -10 -59 0 -20 6 -34 16 -31 21 4 5 1 9 -5 9 -6 0 -8 5 -5 10 3 6
1 10 -6 10 -7 0 -9 3 -5 7 4 4 15 -2 24 -14 23 -29 65 -39 81 -19 16 19 3 39
-40 62 -36 18 -48 53 -23 71 25 18 65 16 92 -6z m170 -52 c-7 -5 -23 -9 -36
-9 -19 0 -22 -4 -17 -31 6 -33 -9 -32 -18 1 -7 27 13 45 52 46 21 1 28 -2 19
-7z m-1300 -10 c18 -6 35 -22 42 -39 17 -42 -9 -83 -88 -137 -63 -43 -63 -43
-37 -53 14 -5 37 -13 50 -16 14 -3 25 -13 25 -21 0 -9 -7 -12 -17 -9 -93 26
-133 41 -130 50 2 6 37 33 78 61 74 51 99 86 86 119 -10 26 -38 31 -70 13 -33
-19 -55 -13 -35 10 11 13 42 31 59 32 3 1 20 -4 37 -10z m1342 -15 c0 -8 -4
-12 -10 -9 -5 3 -10 13 -10 21 0 8 5 12 10 9 6 -3 10 -13 10 -21z m-1571 -44
c39 -11 71 -25 71 -30 0 -13 -1 -13 -91 12 -52 14 -79 26 -79 36 0 8 6 12 14
9 7 -3 46 -15 85 -27z m-418 -2 c44 -13 57 -45 14 -34 -49 12 -76 26 -70 36 8
13 9 12 56 -2z m1954 -16 c-3 -3 -11 0 -18 7 -9 10 -8 11 6 5 10 -3 15 -9 12
-12z m-1819 -23 c10 -17 -13 -36 -27 -22 -12 12 -4 33 11 33 5 0 12 -5 16 -11z
m1736 -11 c9 -22 64 -33 84 -17 8 6 17 10 19 7 3 -3 -1 -11 -10 -18 -22 -18
-77 -4 -106 26 -15 17 -19 24 -9 22 8 -2 18 -10 22 -20z m-824 -13 c35 -10 65
-22 68 -27 3 -5 -22 -38 -55 -73 -33 -36 -71 -83 -83 -105 -13 -23 -31 -40
-41 -40 -16 0 -16 2 -3 28 8 15 44 62 80 104 l66 77 -60 17 c-39 11 -60 22
-60 31 0 9 6 13 13 10 7 -3 41 -13 75 -22z m3074 -2 c10 -9 18 -22 18 -30 0
-20 -23 -16 -38 7 -14 24 -57 27 -66 5 -4 -10 5 -22 27 -35 17 -11 35 -20 39
-20 11 0 20 -39 13 -59 -9 -30 -40 -34 -90 -12 -32 14 -45 26 -45 40 0 27 26
27 33 1 6 -23 54 -38 70 -21 9 10 5 18 -18 36 -75 61 -77 63 -44 96 24 24 70
21 101 -8z m167 -11 c-11 -27 1 -42 34 -42 9 0 17 -6 17 -14 0 -12 -7 -13 -32
-5 -17 5 -33 8 -34 6 -1 -1 -9 -26 -17 -54 -14 -47 -14 -54 -1 -68 9 -8 24
-15 35 -15 10 0 19 -4 19 -10 0 -14 -53 -12 -72 3 -24 18 -26 38 -12 87 18 60
18 68 -6 75 -30 9 -25 28 6 22 21 -4 28 0 36 24 6 17 15 26 23 23 11 -4 11
-12 4 -32z m-2139 8 c8 -5 11 -10 5 -10 -5 0 -17 5 -25 10 -8 5 -10 10 -5 10
6 0 17 -5 25 -10z m2385 -22 c26 -20 27 -25 23 -82 -11 -137 -99 -213 -158
-138 -18 22 -21 36 -17 78 9 86 60 164 108 164 9 0 29 -10 44 -22z m243 -27
c11 -6 9 -9 -5 -13 -12 -3 -24 -21 -32 -49 -7 -24 -18 -57 -25 -74 -27 -65
-47 -167 -35 -181 9 -11 8 -14 -4 -14 -34 0 -39 26 -19 92 12 38 17 67 11 73
-13 13 -11 25 5 25 8 0 19 20 26 48 25 91 45 115 78 93z m-3306 -78 c33 -29
23 -76 -25 -120 -23 -21 -57 -48 -75 -58 -17 -11 -32 -22 -32 -25 0 -4 23 -12
50 -19 47 -12 68 -31 35 -31 -28 0 -135 33 -135 42 0 4 18 21 41 36 73 48 129
103 129 126 0 44 -47 61 -82 29 -13 -11 -22 -13 -29 -6 -7 7 -2 17 18 32 31
25 73 23 105 -6z m3482 -13 c14 -5 26 -17 26 -25 0 -12 -4 -14 -19 -5 -34 18
-58 12 -65 -15 -8 -32 -1 -45 25 -45 10 0 19 -7 19 -15 0 -11 -5 -12 -26 -5
-14 6 -29 8 -33 5 -4 -2 -16 -34 -26 -70 -11 -40 -22 -65 -31 -65 -18 0 -18 2
6 79 21 66 18 80 -17 81 -7 0 -13 5 -13 11 0 7 11 8 30 4 26 -6 30 -3 36 20 6
23 38 55 56 55 3 0 18 -4 32 -10z m-4220 -8 c2 -4 1 -14 -4 -22 -7 -11 -12
-12 -21 -3 -6 6 -8 16 -5 22 8 13 23 14 30 3z m490 -22 c41 -13 65 -25 59 -31
-12 -12 -176 39 -167 52 3 5 13 8 22 5 10 -3 48 -15 86 -26z m440 -11 c20 -16
26 -29 26 -60 0 -34 -8 -47 -66 -109 -41 -43 -74 -70 -87 -70 -18 0 -15 6 22
44 l43 43 -31 11 c-58 21 -66 90 -14 138 32 29 72 31 107 3z m400 -120 c30
-23 34 -63 11 -96 -9 -12 -42 -41 -75 -64 -33 -23 -58 -45 -55 -49 2 -4 25
-13 50 -20 41 -11 62 -30 34 -30 -17 0 -123 31 -131 39 -11 10 3 25 47 51 98
60 138 119 100 150 -14 12 -24 11 -85 -5 l-25 -7 28 26 c34 31 65 33 101 5z
m3026 15 c0 -3 -10 -39 -22 -80 -14 -48 -26 -74 -36 -74 -8 0 -12 6 -10 13 3
6 13 42 24 80 10 37 24 67 31 67 7 0 13 -3 13 -6z m-2906 -53 c3 -5 0 -26 -8
-48 -8 -21 -23 -71 -34 -111 l-20 -71 59 -17 c34 -10 59 -22 59 -30 0 -11 -9
-10 -47 2 -27 8 -61 17 -76 21 -26 5 -28 9 -23 38 12 61 67 225 76 225 5 0 11
-4 14 -9z m283 -85 c25 -22 26 -27 18 -62 -8 -32 -22 -47 -83 -91 -40 -28 -69
-54 -65 -56 5 -2 29 -10 56 -17 43 -11 65 -30 35 -30 -29 0 -133 37 -133 47 0
16 135 104 148 96 6 -3 7 -1 3 5 -4 6 -1 20 5 30 7 11 9 31 5 45 -5 22 -12 27
-39 27 -18 0 -38 -5 -45 -12 -6 -6 -15 -8 -19 -4 -12 11 36 46 63 46 12 0 35
-11 51 -24z m-737 -31 c0 -8 -7 -15 -15 -15 -8 0 -15 7 -15 15 0 8 7 15 15 15
8 0 15 -7 15 -15z m-780 -36 c0 -9 -49 2 -56 12 -3 5 -17 9 -32 9 -20 0 -23 3
-13 9 14 9 101 -17 101 -30z m1721 3 c27 -23 24 -59 -8 -88 -23 -21 -25 -27
-15 -50 20 -42 -23 -104 -73 -104 -21 0 -75 53 -75 74 0 22 17 20 23 -3 2 -10
16 -27 31 -36 24 -16 28 -16 51 -1 32 21 34 70 5 88 -27 17 -25 28 3 28 31 0
47 18 47 52 0 38 -41 56 -76 33 -24 -15 -43 -5 -21 13 30 24 75 22 108 -6z
m-1821 -2 c0 -5 -2 -10 -4 -10 -3 0 -8 5 -11 10 -3 6 -1 10 4 10 6 0 11 -4 11
-10z m-30 -54 c-5 -15 -15 -24 -20 -21 -10 6 -7 17 13 43 15 19 19 8 7 -22z
m76 -21 c16 -14 25 -25 20 -25 -5 0 -3 -6 3 -14 13 -16 0 -59 -26 -88 -16 -18
-93 -26 -93 -10 0 4 15 6 34 4 37 -4 49 9 66 69 7 22 4 33 -13 51 -12 13 -30
22 -41 20 -11 -3 -16 0 -12 7 11 17 31 13 62 -14z m422 -24 c31 -26 37 -70 17
-136 -18 -65 -61 -115 -96 -115 -33 0 -69 46 -69 86 0 55 29 127 63 157 37 32
56 34 85 8z m1738 -12 c20 -17 41 -54 24 -44 -9 5 -10 1 -5 -14 7 -24 -33 -69
-102 -114 -45 -29 -55 -47 -25 -47 9 0 26 -8 37 -16 19 -16 19 -16 -5 -9 -14
4 -37 14 -51 21 -15 7 -30 10 -34 6 -5 -4 -5 -1 -1 6 4 6 41 34 81 61 41 27
71 51 68 55 -3 3 1 8 8 11 24 9 15 58 -13 74 -21 12 -29 12 -58 -2 -42 -22
-49 -16 -14 12 28 22 64 22 90 0z m-2279 -46 c-4 -3 -2 -12 5 -20 6 -7 8 -17
4 -20 -8 -8 -26 16 -26 35 0 6 5 12 12 12 6 0 8 -3 5 -7z m2483 -18 c7 -8 9
-15 6 -15 -4 0 -14 7 -22 15 -9 8 -11 15 -6 15 5 0 15 -7 22 -15z m-71 2 c-2
-1 -13 -9 -24 -17 -19 -14 -19 -14 -6 3 7 9 18 17 24 17 6 0 8 -1 6 -3z
m-1479 -49 c0 -26 -71 -238 -80 -238 -15 0 -12 17 15 105 32 102 32 107 0 95
-39 -15 -30 7 13 29 44 24 52 25 52 9z m-234 -45 c35 -9 64 -21 64 -25 0 -12
-16 -10 -91 13 -38 12 -69 25 -69 31 0 6 7 7 16 4 8 -3 44 -14 80 -23z m-486
3 c0 -7 -8 -20 -17 -27 -16 -13 -17 -12 -4 4 9 12 10 17 2 17 -7 0 -9 5 -6 10
9 15 25 12 25 -4z m1734 6 c2 -4 1 -14 -3 -21 -6 -9 -10 -7 -14 8 -5 20 7 29
17 13z m501 -22 c-3 -5 -12 -10 -18 -10 -7 0 -6 4 3 10 19 12 23 12 15 0z
m-1286 -37 c-6 -21 -17 -60 -26 -87 -14 -45 -14 -50 1 -58 23 -13 20 -31 -4
-25 -15 4 -22 -1 -26 -19 -9 -36 -35 -31 -28 5 6 29 4 30 -50 46 -33 10 -55
22 -53 28 5 17 168 147 183 147 9 0 10 -9 3 -37z m1206 -74 c11 -16 1 -19 -13
-3 -7 8 -8 14 -3 14 5 0 13 -5 16 -11z m-838 -16 c-54 -193 -70 -241 -83 -236
-8 3 -14 6 -14 7 0 0 14 44 30 96 16 52 30 98 30 102 0 4 -11 3 -25 -2 -40
-15 -30 7 13 29 48 24 54 25 49 4z m887 8 c4 -5 -3 -7 -14 -4 -23 6 -26 13 -6
13 8 0 17 -4 20 -9z m-2619 -91 c3 -5 2 -10 -4 -10 -5 0 -13 5 -16 10 -3 6 -2
10 4 10 5 0 13 -4 16 -10z m2150 -35 c14 -13 25 -33 25 -45 0 -20 -71 -98
-125 -136 l-30 -22 49 -14 c28 -8 52 -20 54 -26 5 -17 -10 -15 -89 9 -55 17
-67 24 -59 34 16 20 134 95 149 95 7 0 9 5 6 10 -3 6 -1 10 4 10 6 0 11 18 11
39 0 36 -3 40 -30 46 -21 5 -39 2 -55 -9 -29 -19 -33 -11 -8 16 23 26 69 23
98 -7z m-1995 -7 c0 -5 3 -7 8 -4 9 5 48 -22 46 -32 -1 -4 1 -13 4 -20 7 -19
-10 -33 -28 -22 -10 7 -11 10 -2 10 23 0 12 30 -20 50 -31 19 -32 19 -60 -1
-15 -11 -28 -16 -28 -10 0 12 45 38 66 38 8 0 14 -4 14 -9z m1260 -23 c0 -8
-7 -15 -15 -15 -8 0 -15 7 -15 15 0 8 7 15 15 15 8 0 15 -7 15 -15z m879 -8
c13 4 13 3 2 -5 -16 -12 -53 -4 -45 10 4 6 10 6 16 0 6 -6 18 -8 27 -5z m36
-17 c-3 -5 -12 -10 -18 -10 -7 0 -6 4 3 10 19 12 23 12 15 0z m-2015 -21 c0
-16 4 -19 18 -14 32 14 72 18 72 6 0 -6 -15 -11 -33 -11 -18 0 -43 -7 -55 -16
-29 -20 -36 -14 -27 25 7 35 25 42 25 10z m2055 -27 c-17 -15 -18 -15 -6 0 7
9 9 23 5 30 -6 10 -4 11 7 0 11 -10 10 -15 -6 -30z m-1794 -30 c22 -19 22 -20
9 -95 -8 -43 -17 -77 -20 -77 -13 0 -60 25 -60 33 0 4 11 12 24 16 24 10 40
34 29 45 -4 3 -26 6 -50 6 -23 0 -43 5 -43 10 0 6 25 10 55 10 42 0 55 4 55
15 0 21 -37 37 -71 30 -17 -4 -29 -2 -29 3 0 26 70 28 101 4z m168 -9 c-11
-28 -5 -39 25 -45 11 -1 21 -8 23 -15 3 -9 -4 -10 -28 -3 -18 5 -33 9 -34 7 0
-1 -8 -26 -17 -55 -14 -46 -15 -54 -1 -67 8 -8 23 -15 34 -15 10 0 19 -7 19
-15 0 -18 -7 -18 -49 -4 -40 14 -47 42 -27 110 16 54 12 68 -21 69 -7 0 -13 4
-13 10 0 5 13 7 29 4 24 -5 29 -2 35 20 3 14 13 26 21 26 12 0 12 -5 4 -27z
m1594 12 c-3 -9 -8 -14 -10 -11 -3 3 -2 9 2 15 9 16 15 13 8 -4z m-523 -23 c0
-11 -9 -27 -20 -37 -11 -10 -20 -13 -20 -7 0 6 4 13 9 16 5 3 7 15 4 26 -4 14
0 20 11 20 9 0 16 -8 16 -18z m491 -20 c-37 -68 -78 -120 -91 -112 -10 6 -6
19 22 57 19 26 38 46 42 43 4 -3 12 3 17 13 13 23 22 22 10 -1z m-3764 -17 c6
-16 -22 -55 -40 -55 -6 0 -2 9 8 20 10 11 13 20 7 20 -6 0 -9 7 -6 15 8 19 23
19 31 0z m2431 -68 c35 -32 26 -101 -17 -134 -22 -17 -72 -16 -98 2 -68 47 -8
179 72 158 11 -3 30 -15 43 -26z m125 -48 c-5 -19 -4 -20 15 -10 29 15 75 14
69 -1 -2 -7 -15 -12 -28 -10 -35 4 -73 -30 -88 -77 -6 -23 -18 -41 -26 -41
-11 0 -12 6 -5 28 5 15 16 51 25 80 9 28 23 52 30 52 8 0 11 -7 8 -21z m1320
-28 c-3 -11 -14 -28 -26 -38 -20 -17 -20 -17 -14 0 4 10 7 27 7 38 0 12 7 19
19 19 14 0 18 -5 14 -19z m247 -11 c0 -5 -9 -12 -20 -15 -33 -10 -23 -24 25
-36 44 -11 63 -24 52 -36 -3 -3 -39 5 -81 17 -82 25 -86 34 -28 68 35 20 52
21 52 2z m-1332 -23 c2 -12 -1 -15 -12 -11 -19 7 -22 38 -3 32 6 -3 13 -12 15
-21z m-2868 -52 c0 -1 -7 -22 -15 -45 -21 -60 -20 -73 5 -60 26 14 68 3 81
-22 20 -37 -32 -182 -55 -157 -2 2 4 31 15 64 22 72 18 95 -20 95 -35 0 -59
-26 -75 -81 -13 -45 -36 -65 -36 -31 0 10 4 32 10 48 5 16 21 68 35 116 20 66
29 86 40 81 8 -3 15 -6 15 -8z m4410 -2 c0 -12 -43 -53 -57 -53 -19 0 -16 10
9 37 20 22 48 31 48 16z m-860 -175 c0 -128 -1 -139 -17 -136 -14 3 -17 12
-15 46 3 37 1 43 -23 52 -41 16 -51 12 -71 -25 -20 -37 -22 -39 -41 -27 -18
11 133 243 153 235 11 -4 14 -32 14 -145z m-720 97 c0 -8 -7 -15 -15 -15 -8 0
-15 7 -15 15 0 8 7 15 15 15 8 0 15 -7 15 -15z m1715 -5 c0 -7 -6 -15 -12 -17
-8 -3 -13 4 -13 17 0 13 5 20 13 18 6 -3 12 -11 12 -18z m-4322 -44 c-5 -30
-2 -34 21 -40 39 -10 32 -28 -8 -21 -33 7 -34 7 -46 -44 -15 -62 -9 -81 25
-81 16 0 25 -6 25 -16 0 -13 -7 -15 -32 -10 -62 12 -65 24 -42 142 5 26 2 32
-15 37 -33 8 -26 27 8 21 24 -5 29 -2 35 20 10 41 36 34 29 -8z m1733 -7 c-5
-27 -2 -31 24 -41 41 -14 38 -30 -4 -22 -35 6 -35 6 -50 -47 -18 -59 -10 -79
30 -79 25 0 32 -14 13 -25 -18 -12 -58 4 -74 29 -15 22 -15 29 0 83 21 77 46
133 58 133 5 0 7 -13 3 -31z m1839 15 c0 -33 -71 -244 -82 -244 -7 0 -13 4
-13 8 0 4 -16 8 -36 8 -73 0 -98 91 -43 150 26 28 79 33 99 9 17 -21 26 -12
39 41 7 28 16 44 24 41 7 -2 12 -8 12 -13z m-1639 -10 c55 -18 84 -45 84 -80
0 -60 -47 -99 -100 -83 -44 13 -48 10 -65 -40 -12 -36 -20 -48 -31 -44 -8 3
-14 7 -14 10 0 7 73 253 75 253 1 0 24 -7 51 -16z m2615 -24 c40 -18 42 -20
16 -20 -32 0 -67 16 -67 30 0 13 1 13 51 -10z m-4341 -4 c0 -3 -4 -16 -10 -31
-9 -24 -7 -27 20 -37 41 -14 38 -30 -3 -23 -33 6 -34 6 -46 -38 -17 -60 -12
-81 22 -85 15 -2 27 -9 27 -18 0 -33 -77 -3 -87 34 -3 13 -1 41 6 62 16 53 14
67 -9 73 -32 8 -24 27 9 21 24 -5 29 -2 35 20 3 14 13 26 21 26 8 0 15 -2 15
-4z m3634 -35 c4 -5 2 -20 -2 -33 -5 -12 -12 -35 -15 -50 -6 -22 -4 -25 13
-21 62 16 102 -37 81 -107 -19 -64 -80 -91 -119 -52 -9 9 -26 16 -36 14 -22
-5 -21 -1 26 156 30 97 39 114 52 93z m-1680 -10 c3 -5 -11 -63 -31 -130 -25
-83 -41 -121 -51 -121 -9 0 -12 7 -9 18 63 225 76 258 91 233z m2556 -25 c0
-2 -7 -9 -15 -16 -13 -11 -14 -10 -9 4 5 14 24 23 24 12z m-1012 -26 c29 -27
37 -64 22 -101 -39 -92 -160 -70 -160 29 0 78 84 122 138 72z m-3331 -22 c64
6 94 -69 53 -135 -26 -43 -63 -52 -100 -25 l-29 22 -11 -35 c-15 -45 -35 -47
-26 -2 4 17 18 70 32 117 21 68 28 82 38 70 6 -9 24 -14 43 -12z m1903 -60 c0
-6 -7 -38 -16 -70 -15 -54 -16 -61 -1 -75 26 -26 65 -9 87 40 11 23 20 50 20
60 0 9 7 17 15 17 19 0 19 1 -7 -92 -13 -44 -28 -78 -35 -78 -7 0 -13 6 -13
14 0 11 -10 13 -38 9 -29 -4 -41 -1 -56 16 -18 20 -19 26 -6 74 7 29 17 62 21
75 9 23 29 31 29 10z m-1680 -13 c0 -8 -7 -15 -15 -15 -16 0 -20 12 -8 23 11
12 23 8 23 -8z m260 -19 c-14 -13 -27 -21 -30 -19 -5 5 38 43 48 43 4 0 -5
-11 -18 -24z m3238 -2 c17 -11 22 -24 22 -53 l0 -39 -62 19 c-35 10 -64 19
-65 19 -2 0 -3 -11 -3 -24 0 -44 49 -73 77 -45 7 7 19 9 28 5 14 -5 15 -9 6
-20 -27 -33 -99 -26 -127 12 -18 24 -17 83 2 110 29 42 71 48 122 16z m-3278
-28 c0 -2 -8 -10 -17 -17 -16 -13 -17 -12 -4 4 13 16 21 21 21 13z m1758 -22
c17 -3 32 -12 32 -19 0 -8 -8 -11 -19 -8 -14 3 -20 -2 -24 -24 -7 -37 -46 -57
-83 -43 -32 12 -34 12 -34 0 0 -6 20 -19 44 -30 51 -21 69 -46 55 -72 -22 -40
-149 -8 -149 37 0 13 6 25 14 28 9 4 12 14 9 26 -3 14 0 23 11 27 10 4 16 18
16 38 0 57 19 63 128 40z m-1810 -31 c-6 -10 -32 -36 -57 -58 -43 -37 -43 -36
9 18 57 60 68 69 48 40z m2196 1 c-1 -5 -16 -62 -35 -126 -20 -73 -38 -118
-46 -118 -15 0 -16 16 -4 56 6 16 21 69 36 117 17 57 30 87 38 84 7 -3 11 -8
11 -13z m-231 -44 c37 -12 67 -26 67 -31 0 -5 -2 -9 -4 -9 -4 0 -126 36 -154
45 -17 6 -6 26 11 20 7 -2 42 -13 80 -25z m2017 25 c0 -3 -16 -57 -35 -121
-19 -63 -35 -117 -35 -120 0 -2 -6 -4 -14 -4 -12 0 -10 17 10 91 14 50 30 103
36 118 6 14 11 29 10 34 -1 4 5 7 13 7 8 0 15 -2 15 -5z m-4190 -20 c0 -8 -7
-15 -15 -15 -8 0 -15 7 -15 15 0 8 7 15 15 15 8 0 15 -7 15 -15z m-973 -115
c-4 -33 -5 -60 -2 -60 3 0 16 23 30 50 14 28 32 50 41 50 14 0 15 -9 9 -60 -4
-33 -4 -60 -1 -60 3 0 17 23 32 51 17 35 29 48 36 41 14 -14 -68 -163 -87
-156 -9 4 -12 17 -9 40 2 19 6 50 8 69 3 19 3 35 1 35 -3 0 -18 -27 -35 -60
-36 -71 -66 -83 -56 -22 3 20 6 61 6 90 0 41 3 52 16 52 15 0 16 -8 11 -60z
m5343 29 c0 -6 -4 -7 -10 -4 -5 3 -10 11 -10 16 0 6 5 7 10 4 6 -3 10 -11 10
-16z m-1850 -15 c0 -12 4 -13 21 -4 29 16 68 4 80 -24 9 -19 7 -38 -11 -91
-27 -82 -45 -73 -23 11 20 73 14 94 -25 94 -37 0 -58 -23 -73 -83 -7 -26 -19
-47 -26 -47 -7 0 -13 3 -13 8 0 6 34 119 45 150 6 17 25 6 25 -14z m1827 -16
c-3 -8 -6 -5 -6 6 -1 11 2 17 5 13 3 -3 4 -12 1 -19z m-4576 -86 c12 -31 0
-65 -29 -83 -17 -11 -18 -15 -6 -37 15 -29 1 -77 -26 -92 -52 -28 -126 11
-118 62 3 22 4 22 21 -9 9 -17 26 -34 37 -38 25 -8 57 9 65 35 7 22 -18 70
-35 70 -6 0 -10 5 -10 10 0 6 13 10 28 10 33 0 52 16 52 45 0 43 -46 59 -86
30 -12 -8 -24 -12 -27 -8 -7 6 29 37 53 45 26 9 71 -13 81 -40z m3000 17 c38
-12 69 -25 69 -30 0 -6 -7 -6 -17 -1 -10 5 -35 12 -55 16 -48 9 -110 35 -85
36 11 0 50 -9 88 -21z m-3345 -51 l-7 -63 25 40 c14 22 29 46 34 54 18 31 32
0 26 -62 l-5 -62 31 59 c20 36 35 55 41 49 13 -13 -61 -147 -83 -151 -14 -3
-16 3 -12 32 2 20 6 52 8 71 6 46 -4 39 -38 -29 -34 -67 -62 -76 -52 -18 3 20
6 61 6 90 0 41 3 52 16 52 14 0 15 -9 10 -62z m3504 -3 c33 -19 21 -19 -21 0
-19 8 -27 14 -19 14 8 0 26 -6 40 -14z m50 -9 c0 -3 -4 -8 -10 -11 -5 -3 -10
-1 -10 4 0 6 5 11 10 11 6 0 10 -2 10 -4z m-3760 -33 c0 -20 -24 -11 -28 10
-2 12 1 15 12 11 9 -3 16 -13 16 -21z m907 -115 c53 -49 14 -148 -58 -148 -71
0 -105 85 -58 144 27 34 82 36 116 4z m1673 0 c0 -17 3 -19 12 -10 7 7 27 12
45 12 25 0 31 -4 27 -15 -4 -9 -19 -15 -39 -15 -40 0 -71 -34 -81 -86 -6 -34
-17 -43 -29 -24 -10 16 37 160 52 160 7 0 13 -10 13 -22z m-120 -58 c-17 -32
-22 -19 -7 19 7 20 13 27 15 18 2 -9 -2 -26 -8 -37z m-1420 4 c0 -10 7 -13 24
-8 14 3 33 1 43 -4 15 -9 13 -11 -15 -10 -42 1 -69 -24 -86 -81 -11 -36 -16
-42 -21 -28 -9 22 33 160 46 152 5 -4 9 -13 9 -21z m1963 -96 c-67 -67 -126
-119 -130 -114 -4 4 0 14 10 21 11 7 65 59 122 114 57 56 107 101 112 101 4 0
-47 -55 -114 -122z m-2405 94 c2 -7 -5 -12 -17 -12 -14 0 -19 5 -14 15 6 17
25 15 31 -3z m2228 3 c10 -8 29 -15 42 -15 12 0 22 -4 22 -10 0 -5 -9 -10 -20
-10 -13 0 -20 -7 -20 -19 0 -36 -29 -54 -78 -47 -56 8 -53 -12 6 -32 49 -16
68 -42 52 -72 -18 -34 -113 -19 -148 23 -11 13 -10 19 5 34 10 10 17 27 15 37
-2 11 3 23 12 28 9 5 16 22 16 38 0 49 56 75 96 45z m434 -33 c52 -42 25 -111
-69 -172 -28 -17 -49 -36 -46 -40 3 -4 25 -13 50 -19 43 -11 62 -31 30 -31
-32 0 -135 35 -135 46 0 6 28 29 63 52 34 22 72 51 83 64 27 29 36 75 17 82
-24 10 -71 7 -78 -4 -3 -5 -14 -10 -23 -10 -27 1 35 50 62 50 13 0 34 -8 46
-18z m-2036 -65 c1 -27 5 -32 29 -35 15 -2 27 2 27 8 0 6 5 8 12 4 8 -5 9 -2
5 9 -3 10 -2 17 3 17 17 0 11 -25 -10 -43 -23 -20 -51 -22 -67 -6 -12 12 -33
4 -33 -12 0 -5 19 -18 43 -28 45 -19 80 -51 57 -51 -7 0 -20 8 -29 18 -21 22
-84 28 -100 9 -9 -12 -8 -16 4 -21 8 -3 15 -11 15 -18 0 -7 -10 -3 -22 10
l-23 23 23 17 c14 11 21 24 17 33 -3 9 1 21 9 28 8 7 12 19 10 26 -6 16 15 60
24 51 3 -4 6 -21 6 -39z m2228 13 c6 0 8 -3 5 -7 -4 -3 1 -11 10 -18 21 -16
20 -98 -2 -151 -34 -81 -86 -106 -132 -62 -43 40 -22 170 35 221 11 11 26 16
31 12 6 -3 11 -1 11 5 0 7 7 9 16 6 9 -3 21 -6 26 -6z m-3342 -34 c0 -7 -6
-32 -14 -54 l-15 -41 34 1 c47 2 75 -25 75 -71 0 -34 -20 -77 -44 -93 -17 -12
-55 -9 -79 4 -12 7 -29 12 -37 13 -8 0 -14 5 -13 10 2 18 65 230 70 238 7 12
23 8 23 -7z m3530 -37 c0 -4 -7 -6 -15 -3 -8 3 -25 -5 -39 -19 -14 -14 -27
-23 -29 -20 -3 2 -8 0 -12 -6 -3 -6 -1 -11 6 -11 8 0 8 -4 2 -12 -6 -7 -13
-32 -17 -55 -16 -105 65 -129 103 -30 6 15 15 27 21 27 27 0 -5 -78 -42 -104
-53 -38 -108 0 -108 73 0 56 27 131 48 131 8 0 12 3 9 7 -10 9 45 41 61 35 6
-2 12 -8 12 -13z m-3691 -4 c16 -8 34 -27 40 -43 35 -85 -70 -162 -134 -97
-43 42 -27 123 29 145 29 12 33 12 65 -5z m1501 2 c0 -2 -12 -14 -27 -28 l-28
-24 24 28 c23 25 31 32 31 24z m2224 -24 c4 -9 1 -21 -5 -27 -9 -8 -10 -8 -5
2 4 7 2 19 -4 27 -7 9 -8 15 -2 15 5 0 13 -8 16 -17z m-2284 -37 c0 -2 -8 -10
-17 -17 -16 -13 -17 -12 -4 4 13 16 21 21 21 13z m-135 -35 c30 12 39 10 26
-5 -10 -11 -31 -13 -78 -8 -7 1 -13 6 -13 12 0 6 9 6 23 1 12 -5 31 -5 42 0z
m-882 -39 c17 -15 25 -82 9 -82 -5 0 -31 7 -58 15 -64 19 -64 19 -64 -9 0 -46
40 -68 82 -45 25 13 35 5 18 -16 -20 -24 -77 -19 -107 11 -21 21 -25 32 -20
66 3 22 13 48 22 58 29 32 82 33 118 2z m1977 -2 c17 -31 -3 -79 -51 -126
l-41 -39 16 40 c9 21 23 47 31 55 8 9 15 26 15 37 0 22 9 53 16 53 2 0 8 -9
14 -20z m130 -136 c-56 -54 -106 -101 -113 -103 -7 -2 37 47 98 108 60 61 111
107 113 103 1 -5 -43 -53 -98 -108z m1256 82 c-4 -18 -2 -46 4 -60 14 -38 57
-32 86 12 13 18 25 28 29 22 17 -28 -37 -90 -80 -90 -27 0 -63 38 -65 70 -5
57 0 80 16 80 13 0 15 -7 10 -34z m-2965 -68 c23 -26 24 -45 4 -45 -8 0 -15 8
-15 18 0 31 -58 40 -84 13 -23 -23 -21 -91 3 -104 28 -14 47 -13 66 6 11 11
20 13 26 7 14 -14 -27 -43 -62 -43 -77 0 -107 93 -49 152 26 25 36 29 62 24
17 -3 39 -16 49 -28z m3159 -43 c-24 -25 -49 -45 -55 -45 -11 0 80 90 91 90 5
0 -12 -20 -36 -45z m-1024 8 c-3 -10 -19 -67 -37 -128 -17 -60 -33 -112 -36
-114 -2 -3 -8 0 -14 6 -8 8 -2 40 21 115 17 56 33 111 36 121 3 9 12 17 20 17
10 0 13 -6 10 -17z m-1969 -3 c17 -6 36 -22 43 -35 14 -26 7 -98 -10 -103 -6
-2 -17 -10 -24 -18 -39 -38 -116 4 -116 62 0 52 23 82 76 104 1 0 15 -5 31
-10z m1703 -31 l11 -41 29 27 c19 18 35 25 46 21 14 -5 10 -12 -24 -38 l-40
-31 18 -52 c17 -50 17 -52 0 -48 -10 3 -22 22 -29 44 l-12 40 -30 -26 c-32
-26 -44 -30 -53 -17 -3 5 12 22 33 38 l39 29 -14 45 c-8 25 -14 46 -14 48 0 1
7 2 15 2 8 0 19 -17 25 -41z m-2182 13 c2 -7 -3 -12 -12 -12 -9 0 -16 7 -16
16 0 17 22 14 28 -4z m612 -33 c0 -6 9 -8 20 -4 26 8 81 -31 57 -41 -9 -3 -21
-28 -28 -55 -7 -27 -17 -49 -21 -49 -5 0 -6 -4 -3 -10 3 -5 1 -10 -4 -10 -14
0 -14 8 4 66 20 66 19 84 -5 84 -22 0 -45 -38 -55 -93 -5 -23 -13 -37 -22 -37
-10 0 -13 6 -9 16 3 8 14 44 23 80 10 37 23 64 30 64 7 0 13 -5 13 -11z m370
7 c0 -2 -8 -10 -17 -17 -16 -13 -17 -12 -4 4 13 16 21 21 21 13z m1670 -3 c-1
-19 -16 -31 -29 -24 -7 5 -10 14 -7 20 8 12 36 15 36 4z m-3300 -20 c0 -16
-25 -73 -32 -73 -10 0 -10 8 -2 49 4 17 13 31 20 31 8 0 14 -3 14 -7z m4320
-8 c0 -17 30 -35 59 -35 14 0 21 6 21 20 0 23 18 27 26 5 17 -43 -49 -58 -103
-25 -34 20 -44 50 -18 50 8 0 15 -7 15 -15z m-2930 -10 c21 -25 -24 -174 -46
-152 -2 2 1 17 7 33 7 16 13 35 15 43 2 8 5 25 8 37 4 13 2 26 -4 29 -12 8
-13 25 -1 25 5 0 14 -7 21 -15z m-1330 1 c0 -1 -5 -17 -11 -35 -11 -31 -29
-43 -29 -18 0 29 13 57 26 57 8 0 14 -2 14 -4z m1695 -23 c-3 -8 -5 -22 -5
-31 0 -13 -3 -13 -16 4 -14 17 -15 17 -10 1 3 -11 2 -16 -4 -12 -6 3 -11 -4
-11 -17 -1 -16 -3 -18 -6 -6 -6 23 15 60 29 52 7 -5 9 -2 6 8 -4 9 0 15 8 15
9 0 13 -6 9 -14z m2795 -29 c0 -11 6 -14 21 -9 16 6 20 4 14 -6 -20 -34 -27
-39 -41 -28 -16 13 -19 59 -4 59 6 0 10 -7 10 -16z m-4313 -14 c33 -30 36 -68
13 -142 -22 -71 -55 -108 -94 -108 -54 1 -82 58 -66 133 13 62 26 87 58 114
33 28 62 29 89 3z m3030 3 c-2 -10 -13 -46 -22 -80 -12 -40 -24 -63 -33 -63
-15 0 -14 8 14 108 10 34 21 52 31 52 10 0 14 -6 10 -17z m373 0 c0 -5 -9 -37
-20 -71 -29 -91 -27 -95 25 -66 24 14 53 24 62 22 14 -3 9 -9 -18 -23 l-37
-18 18 -63 c13 -50 14 -64 4 -64 -7 0 -20 25 -29 55 -8 30 -18 55 -21 55 -19
0 -43 -24 -49 -50 -6 -29 -19 -38 -29 -22 -9 16 66 252 80 252 8 0 14 -3 14
-7z m-2145 -33 c-10 -11 -21 -18 -23 -15 -3 3 3 12 14 20 27 20 30 18 9 -5z
m1915 -3 c0 -9 12 -11 40 -9 45 5 70 -10 70 -40 0 -36 -35 -138 -47 -138 -16
0 -16 2 3 71 20 71 15 89 -26 89 -23 0 -35 -7 -50 -32 -11 -18 -23 -48 -26
-65 -6 -33 -17 -42 -29 -23 -9 15 38 160 53 160 6 0 12 -6 12 -13z m-1731 -28
c-11 -6 -11 -11 -1 -21 6 -6 12 -17 12 -22 0 -6 -4 -5 -9 2 -8 14 -26 -3 -57
-54 -7 -11 -15 -16 -18 -13 -9 9 15 60 25 53 8 -5 13 10 10 29 -1 5 3 6 9 2 5
-3 10 1 10 10 0 20 24 47 29 33 2 -6 -3 -14 -10 -19z m3134 -41 c27 -42 -44
-63 -108 -32 -42 20 -50 39 -23 58 11 8 17 19 14 24 -3 6 19 1 50 -12 32 -12
62 -29 67 -38z m-3060 32 c-3 -11 -7 -20 -9 -20 -2 0 -4 9 -4 20 0 11 4 20 9
20 5 0 7 -9 4 -20z m2117 16 c0 -1 -5 -17 -11 -35 -11 -31 -29 -43 -29 -18 0
29 13 57 26 57 8 0 14 -2 14 -4z m-2410 -9 c0 -2 -10 -12 -21 -23 -22 -19 -22
-19 -10 4 10 18 31 31 31 19z m2470 -12 c0 -1 -5 -16 -11 -34 -12 -35 -35 -43
-25 -8 3 12 6 30 6 39 0 11 5 15 15 12 8 -4 15 -7 15 -9z m-2186 -37 c-3 -4 0
-8 5 -8 6 0 11 -4 11 -10 0 -16 -14 -12 -27 8 -9 15 -8 19 3 19 7 0 11 -4 8
-9z m-1404 -17 c0 -4 10 -6 23 -4 36 7 77 -32 77 -73 0 -87 -76 -138 -126 -83
l-18 20 -11 -32 c-11 -33 -35 -52 -35 -28 0 6 14 56 30 110 21 66 36 99 45 99
8 0 15 -4 15 -9z m460 -26 c0 -3 -7 -22 -15 -41 -18 -44 -37 -37 -24 9 5 17 9
33 9 34 0 2 7 3 15 3 8 0 15 -2 15 -5z m955 -5 c3 -5 1 -10 -4 -10 -6 0 -11 5
-11 10 0 6 2 10 4 10 3 0 8 -4 11 -10z m-895 -14 c0 -19 -25 -66 -35 -66 -11
0 -11 7 -4 32 5 18 9 34 9 35 0 2 7 3 15 3 8 0 15 -2 15 -4z m-307 -42 c13
-39 12 -39 45 -15 30 21 52 27 52 15 0 -4 -17 -21 -37 -39 l-37 -31 17 -42
c21 -51 21 -52 3 -52 -8 0 -21 19 -28 41 l-14 41 -32 -27 c-20 -17 -39 -25
-49 -21 -13 5 -7 13 26 38 34 24 41 35 37 52 -18 60 -19 79 -6 74 8 -2 18 -17
23 -34z m3467 2 c0 -8 4 -26 10 -41 l10 -26 27 26 c28 26 53 33 53 15 0 -5 -3
-10 -7 -10 -5 0 -21 -12 -36 -26 l-29 -25 16 -46 c19 -56 19 -53 3 -53 -8 0
-19 18 -26 40 -6 22 -14 40 -17 40 -4 0 -19 -11 -35 -25 -16 -13 -36 -22 -45
-18 -11 4 -4 13 26 36 38 28 41 33 35 64 -3 19 -9 41 -12 49 -3 8 1 14 11 14
9 0 16 -6 16 -14z m2190 -35 c-2 -19 -38 -72 -44 -63 -6 10 1 56 11 74 4 8 33
-1 33 -11z m-2020 -14 c0 -9 10 -12 30 -9 21 3 32 0 36 -12 4 -11 13 -14 30
-10 29 7 56 -12 50 -35 -3 -9 -12 -42 -21 -73 -10 -34 -22 -58 -30 -58 -11 0
-10 13 6 67 23 83 23 83 0 83 -25 0 -35 -15 -51 -73 -12 -46 -25 -65 -37 -54
-2 3 2 30 11 60 22 75 21 89 -6 85 -18 -2 -26 -16 -41 -65 -11 -38 -24 -63
-33 -63 -7 0 -12 6 -9 13 2 6 13 45 25 85 11 39 25 72 30 72 6 0 10 -6 10 -13z
m300 1 c0 -26 -71 -238 -80 -238 -13 0 -13 8 4 61 8 24 24 77 35 117 12 39 26
72 31 72 6 0 10 -5 10 -12z m-3550 -114 c0 -35 3 -64 8 -64 4 0 25 25 46 55
22 30 43 55 47 55 23 0 11 -25 -50 -106 -58 -76 -72 -89 -97 -89 -18 0 -30 6
-32 15 -2 11 5 16 25 15 26 0 28 3 26 35 -2 62 -5 155 -4 164 1 5 8 3 16 -4
10 -9 15 -32 15 -76z m251 24 c51 -14 79 -26 79 -35 0 -9 -7 -12 -17 -9 -10 3
-48 15 -85 26 -38 11 -68 25 -68 30 0 13 1 13 91 -12z m209 18 c0 -18 -33 -75
-40 -71 -9 6 -4 47 7 68 4 7 33 10 33 3z m54 -35 c-3 -9 -9 -24 -11 -33 -3
-10 -12 -18 -20 -18 -10 0 -12 7 -8 23 4 12 9 30 11 39 3 10 11 15 20 11 9 -3
13 -12 8 -22z m3150 -26 c-5 -12 2 -14 39 -9 40 6 47 4 62 -19 14 -23 15 -29
2 -54 -8 -15 -17 -45 -21 -65 -4 -21 -12 -38 -18 -38 -6 0 -8 9 -4 23 26 89
29 116 16 132 -30 37 -82 5 -105 -65 -16 -48 -35 -67 -35 -35 0 8 4 15 9 15 5
0 8 6 7 13 -3 29 27 117 40 117 8 0 11 -6 8 -15z m-4684 -10 c0 -14 -24 -65
-31 -65 -11 0 -11 7 -3 48 4 21 11 29 20 25 8 -3 14 -6 14 -8z m1721 -16 c45
-45 2 -213 -61 -239 -38 -16 -67 -5 -85 30 -19 37 -19 75 1 133 30 88 98 123
145 76z m-458 -29 c37 -11 67 -25 67 -30 0 -15 -19 -12 -91 11 -35 11 -70 23
-77 25 -7 2 -10 9 -7 14 4 6 14 9 23 6 10 -3 47 -15 85 -26z m3704 -22 c7 -6
13 -17 13 -25 0 -11 -5 -10 -17 5 -17 19 -38 26 -70 23 -17 -1 -12 -51 4 -51
19 0 78 -56 66 -63 -5 -4 -16 5 -23 18 -7 14 -20 25 -28 25 -18 0 -52 29 -52
43 0 6 7 19 16 29 18 19 66 17 91 -4z m-4607 -63 c0 -8 -7 -15 -15 -15 -16 0
-20 12 -8 23 11 12 23 8 23 -8z m-280 -65 c0 -38 4 -70 10 -70 7 0 29 27 81
103 4 5 12 6 18 3 7 -5 -4 -28 -31 -67 -80 -113 -93 -111 -103 14 -6 76 -5 87
9 87 13 0 16 -12 16 -70z m1762 48 c19 2 36 -5 53 -22 28 -29 31 -52 11 -101
-23 -55 -79 -72 -115 -36 -20 20 -20 19 -31 -15 -7 -19 -18 -34 -27 -34 -10 0
-13 6 -9 16 4 9 18 58 32 108 31 108 34 113 48 95 6 -8 23 -13 38 -11z m428
-28 c0 -16 -23 -60 -32 -60 -8 0 -1 44 9 63 6 10 23 9 23 -3z m2604 -15 c11
-8 17 -17 14 -20 -3 -3 -16 3 -29 14 -27 23 -14 28 15 6z m-2550 -28 c-7 -18
-24 -23 -24 -8 0 22 13 42 22 33 5 -5 6 -16 2 -25z m-1994 -15 c-5 -15 -16
-51 -25 -79 -9 -29 -21 -53 -26 -53 -13 0 -11 17 12 97 15 49 26 70 34 66 10
-3 11 -12 5 -31z m1701 -2 l12 -41 27 26 c26 25 50 33 50 16 0 -6 -16 -22 -35
-36 -34 -27 -34 -27 -20 -62 8 -20 15 -42 15 -50 0 -26 -28 4 -35 38 -8 34
-12 35 -45 9 -14 -11 -34 -20 -45 -19 -18 0 -18 1 -4 12 8 7 28 22 43 34 l28
22 -15 46 c-13 38 -14 45 -2 45 8 0 20 -18 26 -40z m2913 25 c-22 -17 -44 -19
-44 -5 0 5 7 7 15 4 8 -4 15 -1 15 5 0 6 8 11 17 11 15 0 14 -2 -3 -15z
m-4390 -66 c17 -14 26 -30 26 -50 0 -34 -15 -37 -80 -14 -54 19 -50 20 -50
-15 0 -39 38 -67 70 -50 33 18 48 6 17 -14 -32 -22 -67 -16 -98 17 -43 46 1
147 65 147 13 0 35 -9 50 -21z m370 -4 c27 -8 58 -23 68 -32 17 -15 25 -63 12
-76 -11 -11 -32 4 -27 21 6 26 -19 52 -51 55 -24 2 -30 -3 -40 -31 -6 -18 -15
-31 -19 -28 -4 3 0 -2 8 -12 11 -11 31 -17 60 -17 25 0 45 -3 45 -7 0 -5 -3
-7 -7 -7 -27 4 -35 -1 -23 -16 7 -9 -7 -4 -31 10 -48 27 -64 31 -53 14 4 -7 1
-10 -7 -7 -8 3 -14 10 -13 16 1 7 2 21 3 33 0 12 5 17 13 13 7 -5 8 -3 4 5 -7
10 0 81 7 81 1 0 24 -7 51 -15z m-269 -82 l-6 -68 28 49 c42 74 60 70 56 -13
l-4 -66 19 33 c10 18 21 30 24 26 4 -3 -4 -24 -18 -45 -13 -21 -24 -43 -24
-49 0 -6 -5 -8 -11 -4 -8 5 -10 30 -6 78 l6 71 -19 -25 c-10 -14 -27 -42 -36
-63 -10 -21 -22 -36 -27 -34 -12 4 -10 135 2 175 1 1 6 2 12 2 7 0 9 -22 4
-67z m1728 7 c-3 -12 -8 -19 -11 -16 -5 6 5 36 12 36 2 0 2 -9 -1 -20z m-1579
2 c2 -4 -2 -15 -9 -25 -8 -12 -15 -14 -20 -8 -3 6 -2 11 4 11 6 0 8 7 5 15 -6
15 11 21 20 7z m1573 -74 c-3 -8 -6 -5 -6 6 -1 11 2 17 5 13 3 -3 4 -12 1 -19z
m-1519 -8 c3 -7 1 -10 -4 -7 -5 3 -10 -5 -10 -16 -1 -12 -4 -32 -7 -44 -4 -14
-2 -20 6 -18 13 5 45 -11 37 -18 -3 -2 -19 0 -36 4 -34 10 -38 23 -21 82 10
36 26 45 35 17z m117 -30 c-3 -5 -12 -10 -18 -10 -7 0 -6 4 3 10 19 12 23 12
15 0z m305 -20 c8 -5 11 -12 7 -16 -4 -4 -15 0 -24 9 -18 18 -8 23 17 7z
m-309 -9 c-7 -5 -11 -14 -7 -20 4 -7 1 -9 -8 -5 -19 7 -9 34 13 34 13 0 13 -2
2 -9z m757 -52 c-19 -55 -43 -53 -27 4 6 24 14 34 24 31 10 -4 11 -12 3 -35z
m-343 21 c-3 -5 -13 -10 -21 -10 -8 0 -14 5 -14 10 0 6 9 10 21 10 11 0 17 -4
14 -10z m153 -11 c40 -13 72 -27 72 -35 0 -9 -21 -6 -77 12 -43 13 -81 24 -85
24 -14 0 -9 20 5 20 6 0 45 -10 85 -21z m-588 1 c0 -5 -4 -10 -10 -10 -5 0
-10 5 -10 10 0 6 5 10 10 10 6 0 10 -4 10 -10z m838 -31 c-19 -55 -43 -53 -27
4 6 24 14 34 24 31 10 -4 11 -12 3 -35z m-871 25 c-3 -3 -12 -4 -19 -1 -8 3
-5 6 6 6 11 1 17 -2 13 -5z m1063 -64 c32 -32 18 -170 -18 -170 -8 0 -12 6 -9
14 3 8 11 34 17 57 14 51 -2 99 -32 99 -26 0 -66 -45 -80 -92 -7 -26 -15 -35
-21 -29 -15 15 9 88 38 117 30 30 78 31 105 4z m186 -48 c15 -10 34 -47 34
-66 0 -28 -15 -17 -25 17 -12 37 -46 48 -74 23 -17 -15 -31 -12 -31 6 0 20 74
35 96 20z m-1965 -31 c18 -19 29 -40 29 -58 0 -33 -25 -73 -45 -73 -12 0 -12
6 2 35 24 50 9 89 -34 93 -35 4 -63 -25 -63 -65 0 -26 -18 -31 -27 -7 -9 23
23 83 49 94 39 15 59 11 89 -19z m1861 -68 c-9 -29 -21 -51 -27 -49 -12 4 -8
40 11 85 23 54 35 24 16 -36z m1419 45 c22 -6 39 -17 39 -26 0 -8 -6 -12 -14
-9 -8 3 -32 11 -55 18 -41 12 -55 29 -25 29 9 0 34 -5 55 -12z m-3145 -35
c-23 -100 -32 -124 -44 -110 -9 11 -7 28 9 75 21 62 47 88 35 35z m1973 24
c-2 -1 -13 -9 -24 -17 -19 -14 -19 -14 -6 3 7 9 18 17 24 17 6 0 8 -1 6 -3z
m-1870 -115 c-12 -40 -26 -72 -31 -72 -4 0 -8 5 -8 10 0 6 -12 10 -27 11 -28
0 -28 0 -5 10 13 5 27 7 32 4 4 -3 7 1 6 8 0 6 7 36 18 65 28 81 40 50 15 -36z
m1736 32 l-16 -29 7 35 c8 43 18 60 22 39 1 -8 -4 -28 -13 -45z m-1615 0 c0
-17 2 -17 34 -3 35 16 76 -10 76 -49 0 -33 -22 -98 -38 -114 -18 -18 -15 3 6
59 20 55 19 74 -6 90 -14 8 -26 7 -50 -2 -25 -11 -34 -23 -45 -61 -8 -26 -20
-50 -27 -52 -9 -3 -11 1 -6 13 3 10 14 47 22 81 9 35 20 61 25 58 5 -3 9 -12
9 -20z m3338 -7 c18 -14 15 -51 -9 -81 -16 -20 -29 -26 -59 -26 -30 0 -43 6
-59 26 -22 28 -28 64 -11 64 6 0 15 -11 20 -24 5 -14 18 -30 30 -36 46 -25 90
41 54 81 -17 19 -17 20 2 13 10 -4 25 -11 32 -17z m1902 -23 c0 -9 -9 -48 -20
-85 -19 -64 -31 -81 -44 -61 -4 7 20 100 38 149 7 19 26 16 26 -3z m-5026 -52
c-21 -16 -46 -70 -28 -59 5 3 9 -10 9 -29 0 -31 -1 -33 -13 -17 -25 33 7 123
42 123 6 0 1 -8 -10 -18z m5196 -2 c13 -8 13 -10 -2 -10 -42 0 -67 -91 -32
-117 25 -18 41 -16 65 8 16 16 20 30 17 60 -2 21 -3 39 -2 39 42 0 48 -77 9
-115 -27 -28 -79 -33 -107 -11 -43 32 -43 110 -1 142 21 16 33 17 53 4z
m-1990 -24 c20 -54 83 -54 96 0 7 26 27 28 32 3 5 -29 -37 -69 -72 -69 -42 0
-86 34 -86 66 0 31 18 31 30 0z m2156 -79 c-8 -12 -19 -39 -26 -59 -12 -38
-30 -51 -30 -22 0 9 7 40 16 70 14 48 17 53 35 44 17 -10 17 -13 5 -33z
m-1956 -12 c0 -8 -7 -15 -15 -15 -8 0 -15 7 -15 15 0 8 7 15 15 15 8 0 15 -7
15 -15z m-3329 -27 c-11 -10 -13 -10 -7 0 9 15 1 15 -27 1 -20 -9 -20 -8 2 11
17 14 27 18 35 10 7 -7 6 -14 -3 -22z m5384 -36 c-10 -32 -21 -52 -30 -52 -8
0 -15 2 -15 4 0 3 21 65 35 105 4 9 9 11 15 5 7 -7 5 -28 -5 -62z m-2853 52
c3 -3 -12 -22 -34 -43 l-41 -37 31 -13 c66 -28 64 -126 -4 -158 -31 -16 -37
-15 -69 0 -78 37 -66 114 33 204 54 50 72 60 84 47z m988 -12 c0 -10 5 -23 12
-30 15 -15 64 -16 73 -2 8 14 35 13 35 -1 0 -20 -33 -38 -68 -39 -22 0 -41 8
-57 25 -28 27 -33 65 -10 65 8 0 15 -8 15 -18z m215 -85 c9 -18 17 -22 53 -19
41 2 57 -10 26 -22 -28 -11 -57 -6 -76 11 -17 15 -20 15 -28 3 -6 -8 -10 -23
-10 -32 0 -10 -7 -18 -15 -18 -18 0 -18 6 -4 51 6 19 12 40 15 46 5 18 28 6
39 -20z m-830 -59 c-54 -180 -67 -218 -75 -218 -18 0 -17 17 5 87 41 130 41
126 4 118 -41 -9 -31 8 19 35 56 29 62 27 47 -22z m175 -5 c0 -16 -25 -73 -32
-73 -9 0 -10 26 -2 58 6 19 34 33 34 15z m850 -2 c0 -11 -31 -24 -39 -16 -3 3
1 10 9 15 19 12 30 12 30 1z m-790 -20 c0 -23 -24 -71 -31 -64 -13 13 1 73 17
73 8 0 14 -4 14 -9z m1698 -18 c-4 -22 -22 -20 -26 1 -2 10 3 16 13 16 10 0
15 -7 13 -17z m-813 -3 c3 -5 -1 -10 -9 -10 -9 0 -16 5 -16 10 0 6 4 10 9 10
6 0 13 -4 16 -10z m-1432 -66 c3 -3 3 -12 0 -19 -6 -17 -33 -8 -33 11 0 14 21
19 33 8z m2211 -52 c-8 -26 -19 -64 -24 -84 -8 -27 -15 -36 -26 -31 -8 3 -13
11 -10 18 2 7 14 44 25 83 16 52 25 70 36 66 12 -5 11 -12 -1 -52z m376 24 c0
-7 -7 -33 -15 -56 -8 -23 -15 -44 -15 -45 0 -2 18 -1 40 2 70 10 85 -24 55
-125 -10 -32 -21 -52 -30 -52 -8 0 -15 1 -15 3 0 1 9 30 20 64 23 74 19 93
-21 93 -34 0 -65 -30 -73 -73 -8 -40 -21 -61 -34 -53 -8 4 35 172 62 243 7 17
26 17 26 -1z m-1890 -31 c18 -9 30 -24 30 -35 0 -24 -18 -27 -27 -4 -7 18 -42
34 -60 27 -24 -9 -13 -33 27 -58 39 -25 47 -44 34 -79 -9 -24 -75 -21 -108 5
-29 22 -35 49 -11 49 8 0 15 -7 15 -15 0 -17 46 -39 67 -31 25 10 13 36 -27
61 -43 27 -51 53 -24 79 20 20 47 20 84 1z m184 -20 c-5 -31 -4 -35 20 -41 38
-9 32 -26 -7 -19 -32 6 -33 5 -45 -39 -17 -66 -15 -76 18 -87 36 -13 39 -29 5
-29 -27 0 -65 31 -65 53 0 8 7 36 15 62 16 54 13 65 -16 65 -10 0 -19 5 -19
11 0 7 12 10 30 7 25 -4 30 -1 35 24 4 15 13 28 21 28 12 0 13 -8 8 -35z
m1546 10 c7 -9 19 -14 27 -11 18 7 44 -4 37 -15 -3 -6 -14 -7 -25 -4 -15 5
-19 1 -19 -19 0 -46 -46 -70 -90 -46 -22 12 -36 -3 -17 -18 6 -5 23 -13 37
-17 85 -25 73 -108 -13 -90 -70 15 -114 65 -72 81 8 4 15 17 15 29 0 13 5 27
10 30 6 3 10 16 10 28 0 55 68 90 100 52z m385 -85 c-6 -25 -3 -29 24 -35 39
-8 31 -26 -8 -19 -27 6 -30 3 -46 -45 -21 -63 -16 -77 27 -86 28 -7 30 -9 13
-15 -12 -5 -31 -1 -48 9 -31 17 -31 17 -11 122 5 31 3 37 -15 42 -12 3 -21 10
-21 16 0 7 8 7 26 1 23 -9 26 -7 36 20 12 37 32 29 23 -10z m-4931 19 c36 -17
23 -40 -15 -26 -31 12 -43 6 -53 -29 -5 -18 -1 -24 24 -32 16 -6 30 -16 30
-21 0 -13 2 -13 -37 -2 l-32 9 -21 -69 c-14 -47 -26 -69 -36 -69 -9 0 -14 6
-11 13 2 6 12 39 21 71 18 60 14 75 -21 76 -7 0 -13 5 -13 11 0 7 11 9 29 6
25 -5 31 -2 37 16 16 52 49 68 98 46z m-250 -30 c29 -22 35 -49 11 -49 -8 0
-15 6 -15 14 0 15 -21 26 -51 26 -33 0 -22 -34 19 -55 30 -16 37 -26 37 -50 0
-21 -7 -33 -26 -44 -23 -13 -30 -12 -65 5 -41 20 -61 64 -30 64 9 0 16 -7 16
-15 0 -19 43 -40 64 -32 28 11 17 36 -24 57 -32 16 -40 26 -40 48 0 15 5 33
12 40 18 18 62 14 92 -9z m3676 9 c0 -33 -67 -232 -79 -236 -16 -5 -14 8 30
151 16 53 34 97 39 97 6 0 10 -6 10 -12z m-280 -66 c0 -38 3 -72 6 -75 4 -4
24 18 46 48 21 30 46 55 54 55 19 0 16 -4 -58 -102 -67 -89 -71 -92 -104 -84
-33 9 -31 28 4 24 l27 -3 -3 103 c-2 85 0 102 13 102 12 0 15 -14 15 -68z
m-1330 50 c0 -4 -11 -45 -24 -91 -20 -68 -22 -83 -10 -88 21 -8 17 -23 -6 -23
-13 0 -22 -9 -26 -25 -3 -14 -13 -25 -21 -25 -11 0 -12 8 -7 35 4 23 2 35 -5
35 -6 0 -11 5 -11 10 0 6 8 10 18 10 14 0 21 12 29 48 6 26 11 57 11 70 1 13
6 30 13 38 12 15 39 19 39 6z m-1662 -29 c-5 -25 -28 -28 -28 -4 0 12 6 21 16
21 9 0 14 -7 12 -17z m1872 -29 c0 -4 -19 -24 -42 -45 -28 -25 -37 -38 -27
-39 9 0 28 -9 43 -21 35 -28 36 -85 1 -123 -42 -46 -121 -34 -144 23 -19 45 2
90 71 153 54 49 98 72 98 52z m-1670 -26 c-1 -14 -67 -238 -72 -243 -2 -2 -9
-1 -15 3 -10 6 28 156 57 230 10 23 30 30 30 10z m-1596 -45 c-4 -16 -11 -38
-15 -51 -13 -35 -11 -40 16 -34 40 7 74 -6 81 -32 6 -23 -21 -133 -37 -150
-18 -19 -20 24 -4 79 15 51 15 59 2 72 -26 26 -66 8 -87 -40 -11 -23 -20 -50
-20 -59 0 -10 -7 -18 -15 -18 -17 0 -19 15 -5 56 5 16 21 68 35 117 17 58 31
87 41 87 11 0 13 -7 8 -27z m1360 -20 c-8 -27 -19 -65 -24 -85 -8 -27 -15 -36
-26 -31 -8 3 -13 11 -11 17 3 9 13 40 42 134 3 6 11 12 19 12 13 0 13 -6 0
-47z m3497 16 c32 -23 42 -79 14 -79 -11 0 -14 9 -13 32 3 27 -1 34 -25 42
-19 7 -33 7 -44 0 -29 -18 -25 -30 17 -44 22 -7 40 -17 40 -21 0 -5 -12 -4
-26 1 -47 18 -64 13 -64 -20 0 -37 40 -58 78 -41 30 14 32 14 26 -4 -4 -8 -10
-12 -15 -9 -5 3 -9 1 -9 -3 0 -5 -11 -10 -25 -11 -14 -1 -25 3 -25 9 0 5 -4 8
-9 4 -5 -3 -19 8 -31 25 -16 23 -20 38 -15 63 8 36 33 69 46 61 5 -3 9 0 9 5
0 18 40 12 71 -10z m-3065 -26 c-25 -105 -70 -231 -81 -227 -17 7 54 254 74
254 9 0 11 -8 7 -27z m3224 1 l25 -15 -25 7 c-14 3 -29 10 -34 15 -16 14 6 10
34 -7z m-1330 -34 c0 -6 -16 -62 -35 -126 -19 -63 -35 -117 -35 -120 0 -2 -7
-4 -15 -4 -8 0 -15 1 -15 3 0 3 42 146 56 191 5 16 2 18 -20 12 -38 -9 -32 9
12 32 43 24 52 26 52 12z m1300 -56 c17 -10 18 -13 5 -8 -11 3 -26 7 -32 7 -7
0 -13 4 -13 9 0 12 11 9 40 -8z m-2825 -28 c-13 -30 -13 -35 1 -40 29 -11 42
-6 54 24 7 16 16 27 21 24 5 -3 2 -18 -6 -35 -14 -26 -14 -30 0 -35 21 -9 19
-24 -5 -24 -20 0 -40 -27 -40 -54 0 -9 7 -16 15 -16 8 0 15 -4 15 -10 0 -5
-12 -10 -26 -10 -19 0 -28 -7 -37 -30 -13 -35 -33 -41 -23 -7 13 41 11 49 -12
58 -20 8 -25 4 -38 -27 -8 -19 -19 -32 -24 -29 -6 4 -4 18 5 35 19 36 19 40 0
40 -8 0 -15 5 -15 10 0 6 9 10 20 10 12 0 26 12 35 31 16 29 15 31 -5 36 -28
8 -19 29 11 25 19 -2 27 4 36 28 6 16 16 30 22 30 6 0 5 -13 -4 -34z m-1922 3
c14 -6 30 -22 36 -36 14 -31 14 -33 -4 -33 -9 0 -20 11 -25 25 -7 19 -17 25
-39 25 -58 0 -84 -84 -36 -116 22 -14 26 -14 54 2 36 21 51 12 26 -16 -24 -26
-75 -26 -109 1 -38 30 -37 90 3 130 31 31 55 36 94 18z m211 -15 c-7 -44 -67
-213 -74 -209 -15 9 -13 22 21 129 19 62 34 96 42 93 7 -3 11 -8 11 -13z
m1516 1 c0 -8 -7 -15 -15 -15 -16 0 -20 12 -8 23 11 12 23 8 23 -8z m433 -26
c29 -16 37 -28 37 -61 0 -17 -9 -34 -25 -46 -22 -17 -24 -24 -15 -47 14 -37
13 -49 -10 -75 -40 -46 -121 -23 -133 36 -6 35 16 30 30 -6 8 -20 18 -30 32
-30 12 0 24 -1 27 -2 4 -2 17 11 31 28 l24 32 -32 32 c-27 27 -29 31 -12 28
25 -4 63 28 63 53 0 41 -54 63 -84 34 -18 -19 -37 -20 -30 -1 5 14 40 34 62
35 7 1 23 -4 35 -10z m1693 -21 c-15 -34 -45 -56 -33 -24 4 10 7 26 7 37 0 12
7 19 20 19 18 0 18 -2 6 -32z m59 -21 c-16 -38 -40 -51 -30 -16 4 13 9 32 11
41 3 9 11 15 19 12 11 -5 11 -11 0 -37z m-805 7 c0 -8 -7 -14 -15 -14 -8 0
-15 9 -15 20 0 13 5 18 15 14 8 -4 15 -12 15 -20z m528 -7 c2 -12 -1 -15 -12
-11 -19 7 -22 38 -3 32 6 -3 13 -12 15 -21z m-1333 -17 c3 -5 2 -10 -3 -10
-14 0 -36 -84 -23 -88 6 -2 1 -12 -11 -23 -13 -10 -19 -18 -15 -19 4 0 2 -10
-5 -22 -13 -24 -15 -30 -17 -51 0 -8 -7 -14 -15 -14 -10 0 -11 8 -3 39 5 22
14 35 20 31 7 -4 8 0 4 11 -10 24 32 156 48 156 8 0 17 -4 20 -10z m-1901 -22
c14 -6 28 -20 32 -30 8 -27 -27 -148 -43 -148 -7 0 -13 5 -13 10 0 6 -17 10
-37 10 -20 0 -45 7 -55 17 -43 39 -2 86 73 81 38 -3 44 0 44 17 0 17 -6 20
-47 18 -49 -1 -57 4 -36 25 15 15 50 15 82 0z m1286 -38 c0 -13 -5 -18 -15
-14 -8 4 -15 12 -15 20 0 8 7 14 15 14 8 0 15 -9 15 -20z m-1076 -31 c14 -11
26 -27 26 -35 0 -20 -15 -17 -31 6 -20 28 -63 31 -67 5 -2 -14 8 -26 35 -40
63 -33 55 -95 -12 -95 -35 0 -85 33 -85 56 0 8 7 14 15 14 8 0 15 -7 15 -15 0
-17 46 -39 67 -31 25 10 13 36 -27 61 -41 26 -52 59 -28 83 18 18 62 14 92 -9z
m3431 -40 c4 -16 9 -29 12 -29 3 0 19 11 35 25 16 14 34 22 39 19 6 -3 -6 -20
-27 -38 l-36 -31 16 -55 c16 -52 15 -54 -1 -37 -10 10 -23 31 -28 48 l-11 31
-31 -26 c-17 -14 -36 -26 -42 -26 -21 0 -11 18 24 41 38 26 37 19 17 109 -5
22 -3 23 11 12 9 -7 19 -27 22 -43z m-1454 18 c-10 -9 -11 -8 -5 6 3 10 9 15
12 12 3 -3 0 -11 -7 -18z m165 -3 c51 -15 72 -29 61 -41 -3 -3 -30 2 -59 11
-32 9 -54 11 -56 6 -2 -6 -13 -10 -24 -10 -14 0 -18 5 -14 16 3 9 6 20 6 25 0
13 24 11 86 -7z m841 0 c3 -9 -3 -24 -17 -37 -20 -19 -22 -19 -16 -4 3 10 6
27 6 38 0 23 18 25 27 3z m-1282 -4 c-3 -5 -11 -10 -16 -10 -6 0 -7 5 -4 10 3
6 11 10 16 10 6 0 7 -4 4 -10z m35 -8 c0 -5 -7 -9 -15 -9 -8 0 -12 4 -9 9 3 4
9 8 15 8 5 0 9 -4 9 -8z m-1534 -25 c15 -13 25 -29 23 -36 -3 -8 -14 -4 -32
13 -31 29 -49 32 -65 13 -14 -16 -6 -28 41 -56 38 -24 49 -55 25 -79 -19 -19
-73 -14 -102 9 -28 22 -37 63 -11 53 8 -4 15 -13 15 -20 0 -18 44 -39 64 -31
27 11 17 36 -24 62 -28 17 -40 32 -40 48 0 50 60 64 106 24z m176 -19 c43 -13
78 -28 78 -35 0 -9 -12 -8 -47 3 -27 8 -65 19 -85 24 -21 6 -38 15 -38 20 0
14 3 13 92 -12z m208 18 c0 -2 -7 -20 -16 -41 -10 -24 -19 -34 -25 -28 -13 13
9 73 27 73 8 0 14 -2 14 -4z m3030 -6 c0 -6 10 -8 24 -4 14 3 29 0 38 -9 8 -9
25 -13 40 -10 42 8 49 -20 25 -99 -11 -38 -26 -68 -33 -68 -9 0 -7 16 7 63 24
77 24 87 0 87 -25 0 -35 -14 -55 -77 -10 -29 -22 -53 -27 -53 -10 0 -4 31 17
91 14 41 5 63 -22 57 -12 -2 -24 -23 -38 -66 -11 -34 -26 -62 -33 -62 -7 0
-11 6 -8 13 2 6 11 37 20 67 9 30 18 61 20 68 5 14 25 16 25 2z m324 4 c-7 -3
-9 -14 -6 -26 3 -14 1 -19 -6 -14 -8 4 -10 2 -6 -8 3 -8 0 -25 -7 -38 -7 -13
-14 -27 -15 -33 0 -5 -2 -12 -3 -15 -2 -3 -5 -18 -7 -35 -3 -16 -9 -35 -15
-41 -5 -6 -6 -14 -2 -17 3 -4 -1 -7 -9 -7 -14 0 -12 11 9 78 14 42 29 96 35
120 7 29 15 42 26 41 9 0 12 -3 6 -5z m-3300 -33 c-3 -9 -9 -24 -11 -33 -3
-10 -11 -18 -18 -18 -10 0 -11 9 -3 39 7 28 14 38 25 34 8 -3 12 -12 7 -22z
m1703 -26 c-24 -21 -45 -31 -55 -28 -12 5 -9 12 18 35 19 15 43 28 55 28 17
-1 14 -6 -18 -35z m203 -70 c0 -55 -16 -76 -27 -35 -4 16 -9 18 -19 9 -28 -23
-33 3 -7 41 37 57 53 52 53 -15z m-2146 4 c22 -6 35 -14 30 -19 -11 -11 -156
32 -162 48 -2 8 11 7 45 -3 26 -8 65 -20 87 -26z m-1120 -2 l70 -22 -62 -69
c-34 -37 -70 -81 -79 -97 -18 -31 -28 -35 -38 -19 -8 12 31 66 87 122 21 21
38 42 38 47 0 4 -27 16 -60 25 -33 9 -60 21 -60 27 0 14 28 10 104 -14z m1522
-50 c15 -13 25 -29 23 -36 -3 -8 -14 -4 -32 13 -31 29 -47 32 -65 14 -18 -18
-15 -26 18 -43 17 -9 28 -20 25 -25 -3 -6 1 -7 9 -4 9 3 17 -3 21 -16 8 -26
-19 -60 -47 -60 -27 0 -75 26 -82 46 -11 27 0 27 28 -1 16 -16 35 -25 49 -23
35 5 27 39 -15 67 -29 18 -38 31 -38 52 0 44 62 54 106 16z m170 -11 c-6 -31
-4 -34 24 -39 16 -4 30 -11 30 -17 0 -7 -13 -9 -34 -4 l-34 6 -18 -57 -18 -57
29 -24 30 -24 -33 11 c-38 13 -48 41 -33 95 16 56 14 72 -9 79 -31 10 -24 25
9 19 24 -5 29 -2 35 20 10 40 29 33 22 -8z m248 -12 c35 -34 32 -122 -5 -183
-29 -48 -33 -32 -9 38 11 34 19 74 16 89 -2 15 -5 30 -5 33 -2 12 -33 20 -53
13 -43 -13 -89 -160 -62 -201 8 -13 11 -23 6 -23 -5 0 -17 18 -27 40 -17 37
-17 43 -2 96 27 95 96 143 141 98z m1517 -43 c36 -29 20 -31 -36 -5 -48 22
-49 23 -19 23 18 1 42 -8 55 -18z m173 -15 c-5 -30 -3 -35 17 -38 42 -6 30
-23 -16 -23 -27 0 -45 5 -45 11 0 7 -11 15 -25 18 -14 4 -23 11 -20 16 4 6 17
7 30 4 20 -5 25 -1 31 20 3 14 13 26 21 26 10 0 12 -8 7 -34z m-3214 4 c11
-11 20 -30 20 -43 0 -39 -51 -97 -117 -134 -18 -10 -33 -21 -33 -24 0 -4 23
-15 50 -24 28 -9 50 -21 50 -26 0 -13 -6 -12 -87 12 -40 12 -70 26 -67 31 3 4
39 31 79 58 99 67 119 104 70 136 -22 14 -26 14 -54 -2 -36 -21 -51 -12 -26
16 25 27 88 27 115 0z m1755 -47 c-4 -21 -11 -40 -16 -41 -5 -2 -7 -7 -4 -11
8 -14 -27 -121 -40 -121 -10 0 -11 8 -2 35 18 61 -14 99 -67 79 -8 -3 -20 -21
-26 -40 -13 -39 -30 -45 -30 -10 0 61 91 101 124 54 l15 -21 9 24 c5 13 13 39
17 57 10 46 29 41 20 -5z m-2017 6 c39 -12 72 -26 72 -30 0 -5 -5 -9 -10 -9
-23 0 -160 45 -160 52 0 12 19 10 98 -13z m461 -25 c24 -30 26 -55 10 -87 -16
-31 -131 -147 -146 -147 -21 0 -15 14 22 50 37 36 43 50 22 50 -26 0 -57 40
-57 74 0 78 103 119 149 60z m3441 -13 c0 -37 -41 -151 -54 -151 -10 0 -7 20
12 85 24 80 42 108 42 66z m-282 -29 c3 -25 0 -31 -12 -26 -10 4 -16 18 -16
36 0 40 24 32 28 -10z m-1548 -2 c0 -5 -2 -10 -4 -10 -3 0 -8 5 -11 10 -3 6
-1 10 4 10 6 0 11 -4 11 -10z m1670 -5 c0 -15 -34 -55 -46 -55 -18 0 -18 6 4
35 15 22 42 34 42 20z m-1600 -15 c0 -13 -11 -13 -30 0 -12 8 -11 10 8 10 12
0 22 -4 22 -10z m-1280 -57 c37 -48 12 -94 -88 -160 -58 -39 -56 -47 10 -58
22 -4 38 -12 38 -20 0 -11 -14 -10 -67 6 -38 10 -69 19 -70 19 -2 0 -3 6 -3
13 0 7 24 27 53 44 78 47 121 95 113 127 -8 33 -47 44 -80 23 -29 -20 -42 -10
-19 15 26 29 87 24 113 -9z m3405 -34 c31 -59 27 -63 -9 -9 -14 22 -23 40 -20
40 4 0 0 8 -7 17 -10 12 -10 15 -1 9 7 -4 24 -30 37 -57z m-2139 -11 c3 -4
-17 0 -45 9 -28 9 -51 20 -51 24 0 7 84 -22 96 -33z m-1159 -5 c-2 -16 -16
-66 -31 -112 -14 -47 -23 -88 -19 -92 5 -3 32 -14 61 -24 28 -9 52 -21 52 -26
0 -12 -5 -12 -86 14 l-71 22 35 123 c24 82 40 122 50 122 10 0 13 -8 9 -27z
m2363 12 c0 -14 24 -20 58 -16 17 3 15 -26 -3 -33 -10 -4 -15 -19 -15 -49 0
-42 -1 -44 -26 -41 -33 3 -44 19 -44 62 0 17 -4 32 -10 32 -5 0 -10 -22 -10
-50 0 -57 -24 -90 -63 -90 -13 0 -32 9 -42 20 -14 15 -15 20 -4 20 8 0 20 -4
28 -9 14 -9 51 -3 51 9 0 4 -12 5 -27 2 -21 -4 -32 1 -53 26 -24 29 -26 29
-25 9 0 -45 -20 -31 -23 16 -3 42 -6 47 -26 47 -27 0 -36 -17 -36 -66 0 -21
-4 -33 -10 -29 -5 3 -10 32 -10 64 l0 58 41 -1 c31 -1 45 -6 53 -21 6 -11 12
-22 13 -24 2 -2 12 8 24 23 16 21 29 27 53 25 56 -4 76 1 76 16 0 8 7 15 15
15 8 0 15 -7 15 -15z m770 -7 c19 -21 28 -78 13 -78 -5 0 -30 7 -58 15 -27 9
-55 13 -62 11 -16 -7 -26 10 -18 33 13 41 92 54 125 19z m-1086 -30 c35 -50 1
-115 -55 -104 -24 5 -29 2 -29 -14 0 -11 -4 -20 -9 -20 -10 0 -19 89 -13 131
3 23 9 26 47 27 35 2 47 -2 59 -20z m493 -1 l18 -24 18 24 c32 40 107 20 107
-29 0 -15 -8 -18 -50 -18 -52 0 -64 -12 -31 -30 21 -10 51 -4 51 11 0 5 7 9
15 9 25 0 -1 -39 -30 -46 -29 -7 -75 18 -75 41 0 11 -13 15 -50 15 -36 0 -50
-4 -50 -14 0 -8 7 -16 15 -20 18 -6 45 2 45 15 0 5 7 9 15 9 22 0 18 -17 -7
-34 -46 -33 -98 -7 -98 47 0 63 71 91 107 44z m-1515 -10 c13 -20 9 -59 -9
-79 -10 -11 -30 -18 -55 -18 l-39 0 7 38 c14 75 21 85 56 78 18 -3 36 -12 40
-19z m630 10 c1 -29 -15 -98 -25 -104 -31 -20 -77 -5 -77 25 0 31 30 63 52 57
14 -5 21 -1 25 15 5 19 24 25 25 7z m88 -7 c0 -13 7 -20 19 -20 11 0 23 -9 26
-20 9 -27 -21 -74 -42 -66 -8 3 -22 6 -32 6 -16 0 -16 5 -5 58 7 31 13 58 13
60 1 1 6 2 11 2 6 0 10 -9 10 -20z m-470 6 c0 -11 -19 -15 -25 -6 -3 5 1 10 9
10 9 0 16 -2 16 -4z m-981 -43 c35 -43 11 -88 -81 -150 -32 -21 -58 -41 -58
-45 0 -8 57 -28 81 -28 11 0 19 -4 19 -10 0 -14 -14 -13 -82 6 -32 9 -58 22
-58 28 0 7 19 23 43 36 66 37 107 71 123 103 14 26 14 31 0 46 -9 10 -14 20
-11 22 2 3 -11 3 -30 1 -20 -2 -38 -8 -41 -13 -3 -5 -12 -9 -21 -9 -14 0 -14
3 2 20 28 31 88 27 114 -7z m1247 -20 c2 -47 -18 -63 -56 -43 -39 21 -14 88
33 86 19 -1 22 -7 23 -43z m1813 13 c-3 -3 -11 5 -18 17 -13 21 -12 21 5 5 10
-10 16 -20 13 -22z m-2231 -3 c3 -19 -1 -23 -23 -23 -14 0 -24 -4 -21 -9 3 -5
15 -7 26 -4 25 7 26 -3 1 -17 -40 -21 -73 19 -51 60 16 29 64 24 68 -7z m92
16 c0 -6 -9 -9 -20 -6 -11 3 -20 1 -20 -3 0 -5 9 -12 20 -15 43 -14 6 -60 -38
-48 -22 5 -27 14 -15 26 3 4 12 2 20 -5 7 -6 17 -8 20 -4 7 7 -9 21 -31 29 -5
2 -7 11 -3 20 7 19 67 24 67 6z m46 -11 c-3 -13 -6 -31 -6 -40 0 -10 -7 -18
-15 -18 -15 0 -14 19 1 68 7 23 27 13 20 -10z m98 -10 c-12 -61 -27 -83 -58
-83 -16 0 -31 6 -34 13 -3 9 3 11 21 7 14 -4 28 -2 31 4 5 7 -2 11 -17 11 -30
0 -40 21 -27 55 8 21 16 25 50 25 39 0 39 0 34 -32z m96 23 c0 -5 -3 -23 -6
-40 -9 -42 -32 -42 -26 0 3 23 1 30 -9 27 -7 -2 -16 -15 -19 -28 -3 -13 -12
-26 -19 -28 -10 -3 -12 2 -8 19 4 13 7 32 7 42 0 13 9 17 40 17 22 0 40 -4 40
-9z m382 -18 l4 -28 14 28 c7 15 20 27 28 27 12 0 12 -3 0 -22 -8 -13 -24 -40
-37 -60 -21 -35 -51 -51 -51 -28 0 6 5 10 11 10 8 0 9 17 6 50 -4 38 -2 50 8
50 8 0 15 -12 17 -27z m-2282 -19 c0 -9 -5 -14 -12 -12 -18 6 -21 28 -4 28 9
0 16 -7 16 -16z m3786 -9 c-11 -8 -25 -15 -30 -15 -6 1 0 7 14 15 32 19 40 18
16 0z m-2863 -7 c9 -7 17 -22 18 -33 3 -34 -1 -69 -7 -62 -12 11 -33 -21 -29
-42 2 -12 0 -19 -6 -16 -5 4 -9 13 -9 21 0 8 -5 13 -11 12 -6 -2 -14 4 -16 12
-4 13 -3 13 6 0 8 -11 11 -12 11 -2 0 7 4 11 9 7 9 -5 51 40 51 55 0 4 -8 16
-17 27 -21 24 -55 23 -83 -2 -11 -10 -20 -13 -20 -7 0 16 41 42 65 42 12 0 29
-6 38 -12z m2954 -10 c-3 -8 -6 -5 -6 6 -1 11 2 17 5 13 3 -3 4 -12 1 -19z
m-142 -8 c-3 -5 -14 -10 -23 -9 -14 0 -13 2 3 9 27 11 27 11 20 0z m-2936
-181 c11 -26 18 -30 47 -27 18 1 33 -2 33 -7 0 -14 -59 -7 -86 10 -12 8 -21
24 -20 35 2 28 10 25 26 -11z m106 -9 c3 -5 1 -10 -4 -10 -6 0 -11 5 -11 10 0
6 2 10 4 10 3 0 8 -4 11 -10z m90 -70 c3 -6 -1 -7 -9 -4 -18 7 -21 14 -7 14 6
0 13 -4 16 -10z"/>
<path d="M1921 8826 c-9 -11 -5 -16 20 -25 57 -20 76 -10 43 23 -19 20 -48 21
-63 2z"/>
<path d="M2446 8669 c-8 -12 -12 -27 -9 -34 7 -20 34 -27 49 -14 19 16 18 55
-2 63 -22 8 -21 9 -38 -15z"/>
<path d="M2385 8540 c-10 -16 2 -28 41 -40 64 -21 90 10 29 36 -40 17 -61 18
-70 4z"/>
<path d="M1220 8530 c-21 -13 -2 -29 43 -37 28 -4 37 -2 37 9 0 33 -47 49 -80
28z"/>
<path d="M1821 8346 c-9 -11 -5 -16 20 -25 57 -20 76 -10 43 23 -19 20 -48 21
-63 2z"/>
<path d="M2418 8163 c-26 -30 -31 -62 -14 -88 20 -30 39 -32 66 -5 25 25 28
95 4 104 -26 10 -40 7 -56 -11z"/>
<path d="M2194 8155 c-9 -22 4 -35 35 -35 29 0 51 16 51 37 0 19 -79 17 -86
-2z"/>
<path d="M6087 8083 c-27 -31 -26 -88 3 -103 39 -21 77 23 72 84 -2 37 -48 48
-75 19z"/>
<path d="M2817 8053 c-14 -14 -5 -23 34 -33 48 -13 55 -10 39 19 -10 20 -58
30 -73 14z"/>
<path d="M3211 7926 c-21 -25 -25 -81 -6 -99 38 -39 88 0 83 66 -3 39 -5 42
-34 45 -18 2 -36 -3 -43 -12z"/>
<path d="M3425 7876 c-26 -19 -13 -66 19 -66 37 0 50 52 17 69 -13 7 -23 6
-36 -3z"/>
<path d="M3360 7730 c0 -14 11 -22 39 -31 69 -21 99 10 36 37 -49 20 -75 18
-75 -6z"/>
<path d="M147 7834 c-14 -14 -7 -23 29 -34 40 -14 53 -7 38 18 -12 18 -55 28
-67 16z"/>
<path d="M3830 7762 c-24 -7 -40 -33 -40 -65 0 -43 17 -67 48 -67 33 0 62 42
62 88 0 24 -6 32 -27 39 -16 6 -35 8 -43 5z"/>
<path d="M747 7654 c-14 -14 -6 -23 30 -33 42 -12 52 -7 37 17 -12 18 -55 28
-67 16z"/>
<path d="M6071 7586 c-11 -12 -6 -17 28 -27 45 -14 61 -7 45 19 -14 22 -57 27
-73 8z"/>
<path d="M3063 7403 c-18 -7 -16 -42 2 -49 22 -9 65 4 72 22 3 8 4 16 2 18 -8
7 -65 13 -76 9z"/>
<path d="M2348 7183 c-27 -7 -21 -30 10 -37 15 -4 35 -9 45 -12 22 -7 23 19 1
40 -16 16 -24 17 -56 9z"/>
<path d="M2931 6984 c-32 -40 -26 -99 9 -104 38 -6 52 2 66 35 18 44 15 66
-11 82 -30 18 -41 16 -64 -13z"/>
<path d="M3137 6940 l-22 -18 25 -10 c14 -5 40 -13 57 -17 29 -6 32 -4 26 12
-16 46 -52 60 -86 33z"/>
<path d="M2000 6765 c-10 -12 -8 -16 11 -23 63 -24 69 -24 69 -3 0 35 -57 54
-80 26z"/>
<path d="M6067 6562 c-20 -22 -22 -83 -5 -100 29 -29 70 -2 82 54 12 54 -42
85 -77 46z"/>
<path d="M2776 6465 c-7 -8 -17 -11 -22 -7 -5 4 -2 -2 6 -13 8 -11 14 -21 15
-22 0 -1 12 -4 26 -8 20 -5 33 0 54 19 l27 25 -29 6 c-15 3 -36 8 -46 10 -9 2
-23 -3 -31 -10z"/>
<path d="M5755 6236 c-39 -39 -60 -147 -33 -174 20 -20 56 -14 74 12 22 34 43
121 36 148 -11 44 -42 49 -77 14z"/>
<path d="M2866 6078 c-9 -12 -16 -29 -16 -38 0 -25 29 -60 50 -60 44 0 78 78
48 108 -20 20 -65 14 -82 -10z"/>
<path d="M2532 5658 c-40 -65 -47 -149 -15 -174 44 -36 96 37 97 135 l1 66
-31 3 c-27 3 -35 -2 -52 -30z"/>
<path d="M3149 5430 c-30 -23 -55 -44 -57 -49 -3 -10 71 -32 79 -23 7 7 40
112 35 112 -1 0 -27 -18 -57 -40z"/>
<path d="M2764 5013 c-16 -11 -34 -49 -34 -71 0 -10 9 -27 20 -37 45 -41 106
20 84 83 -10 27 -47 41 -70 25z"/>
<path d="M3831 4724 c-23 -39 -20 -54 10 -54 16 0 19 7 19 45 0 25 -2 45 -4
45 -2 0 -14 -16 -25 -36z"/>
<path d="M3998 4649 c-25 -14 -42 -73 -28 -99 27 -50 94 -8 88 55 -3 41 -30
61 -60 44z"/>
<path d="M2461 4678 c-24 -67 -23 -77 11 -86 42 -11 57 -5 69 25 15 41 10 53
-26 69 -44 18 -44 18 -54 -8z"/>
<path d="M4376 4518 c-19 -27 -21 -79 -4 -96 43 -43 108 45 72 96 -19 28 -49
28 -68 0z"/>
<path d="M4176 4568 c-19 -27 -21 -69 -4 -86 42 -42 112 26 86 83 -15 33 -60
34 -82 3z"/>
<path d="M900 4540 c-37 -37 -24 -110 20 -110 34 0 49 17 57 66 5 29 2 40 -12
50 -26 19 -42 17 -65 -6z"/>
<path d="M4583 4474 c-23 -10 -14 -22 23 -34 40 -14 53 -7 38 18 -11 18 -40
25 -61 16z"/>
<path d="M3040 4410 c-14 -27 4 -52 34 -48 31 4 30 62 -1 66 -14 2 -26 -4 -33
-18z"/>
<path d="M2984 4289 c-11 -19 33 -49 72 -49 24 0 34 5 34 15 0 25 -93 55 -106
34z"/>
<path d="M1157 3952 c-21 -23 -22 -85 -3 -101 8 -7 27 -11 43 -9 21 2 30 11
41 40 13 33 13 40 -2 63 -20 30 -56 33 -79 7z"/>
<path d="M3101 3882 c-7 -14 -6 -24 4 -38 18 -25 50 -7 50 27 0 31 -39 39 -54
11z"/>
<path d="M3044 3758 c-13 -21 59 -57 91 -44 25 9 17 25 -21 41 -44 18 -60 19
-70 3z"/>
<path d="M3723 3810 c1 -3 -6 -19 -16 -36 -44 -83 -40 -174 8 -174 28 0 51 25
69 77 21 59 23 108 6 124 -14 13 -70 21 -67 9z"/>
<path d="M416 3658 c-23 -33 -21 -85 4 -98 40 -21 80 15 80 73 0 48 -57 64
-84 25z"/>
<path d="M219 3719 c-31 -31 -23 -90 13 -103 34 -12 64 11 73 56 13 57 -44 89
-86 47z"/>
<path d="M622 3607 c-10 -11 -5 -16 27 -25 51 -16 53 -16 49 11 -2 16 -11 23
-34 25 -17 2 -36 -3 -42 -11z"/>
<path d="M1223 3432 c-21 -13 -33 -60 -23 -87 13 -33 37 -42 68 -24 52 29 48
119 -5 119 -16 0 -33 -4 -40 -8z"/>
<path d="M304 3275 c-21 -33 -43 -94 -44 -123 -1 -62 52 -83 89 -36 29 36 47
127 33 159 -16 34 -56 34 -78 0z"/>
<path d="M4846 3227 c-9 -7 -12 -17 -8 -23 19 -30 94 -46 108 -23 16 26 -72
66 -100 46z"/>
<path d="M476 3128 c-20 -29 -20 -72 0 -92 21 -22 31 -20 59 9 27 26 33 73 13
93 -19 19 -55 14 -72 -10z"/>
<path d="M1710 2862 c-59 -59 -67 -192 -11 -192 29 0 59 41 75 103 25 95 -10
143 -64 89z"/>
<path d="M1879 2719 c-15 -15 -19 -30 -17 -62 3 -41 4 -42 38 -42 32 0 36 3
50 43 15 43 14 44 -9 63 -29 24 -36 24 -62 -2z"/>
<path d="M544 2616 c-18 -14 -18 -15 6 -24 66 -25 70 -25 70 1 0 37 -40 49
-76 23z"/>
<path d="M3342 1773 c-32 -28 -38 -67 -13 -92 37 -37 82 -19 95 39 7 29 0 42
-31 59 -28 14 -27 14 -51 -6z"/>
<path d="M5887 1538 c-20 -11 -22 -41 -3 -57 26 -22 63 10 50 43 -8 20 -27 26
-47 14z"/>
<path d="M5820 1396 c0 -21 23 -35 60 -38 47 -4 54 25 9 41 -43 15 -69 14 -69
-3z"/>
<path d="M3296 1271 c-27 -29 -18 -82 17 -101 27 -14 29 -14 53 13 30 35 31
71 2 91 -30 21 -51 20 -72 -3z"/>
<path d="M2274 1088 c-13 -25 -14 -32 -2 -39 24 -16 45 -9 57 17 13 30 9 40
-19 47 -15 4 -24 -2 -36 -25z"/>
<path d="M701 966 c-30 -36 40 -64 73 -30 21 20 20 34 -1 34 -10 0 -27 3 -39
6 -12 3 -26 -1 -33 -10z"/>
<path d="M802 587 c-38 -40 -24 -97 23 -97 52 0 81 64 46 99 -27 27 -42 26
-69 -2z"/>
<path d="M3637 399 c-21 -12 -22 -43 -1 -63 21 -22 54 -4 54 29 0 29 -28 47
-53 34z"/>
<path d="M3770 365 c0 -19 5 -35 10 -35 6 0 10 16 10 35 0 19 -4 35 -10 35 -5
0 -10 -16 -10 -35z"/>
<path d="M4454 429 c-8 -14 3 -24 44 -37 27 -9 34 -9 39 3 3 9 0 22 -7 30 -14
17 -66 20 -76 4z"/>
<path d="M3377 379 c-12 -46 24 -72 56 -41 27 28 15 62 -23 62 -20 0 -29 -6
-33 -21z"/>
<path d="M3873 394 c-16 -12 -14 -13 20 -14 39 0 50 14 17 23 -10 3 -27 -1
-37 -9z"/>
<path d="M3995 390 c-4 -6 8 -10 30 -10 22 0 34 4 30 10 -3 6 -17 10 -30 10
-13 0 -27 -4 -30 -10z"/>
<path d="M2370 378 c0 -7 -3 -23 -6 -35 -5 -19 -2 -23 14 -23 24 0 47 34 38
56 -7 17 -46 19 -46 2z"/>
<path d="M2997 353 c-13 -12 -7 -33 8 -33 8 0 15 9 15 20 0 20 -11 26 -23 13z"/>
<path d="M3142 338 c2 -13 8 -23 13 -23 6 0 11 10 13 23 2 15 -2 22 -13 22
-11 0 -15 -7 -13 -22z"/>
<path d="M2908 353 c7 -3 16 -2 19 1 4 3 -2 6 -13 5 -11 0 -14 -3 -6 -6z"/>
<path d="M2905 320 c4 -6 11 -8 16 -5 14 9 11 15 -7 15 -8 0 -12 -5 -9 -10z"/>
<path d="M2488 353 c7 -3 16 -2 19 1 4 3 -2 6 -13 5 -11 0 -14 -3 -6 -6z"/>
<path d="M2703 344 c-9 -23 11 -38 26 -20 13 16 7 36 -10 36 -5 0 -12 -7 -16
-16z"/>
<path d="M2870 8962 c0 -34 73 -44 90 -12 10 19 8 20 -40 20 -27 0 -50 -4 -50
-8z"/>
<path d="M3281 8933 c-14 -48 -14 -79 -1 -104 14 -24 52 -25 74 0 21 23 45 86
46 119 0 20 -5 22 -55 22 -54 0 -54 0 -64 -37z"/>
<path d="M4610 8957 c0 -19 21 -37 45 -37 24 0 45 18 45 37 0 9 -15 13 -45 13
-30 0 -45 -4 -45 -13z"/>
<path d="M4820 8965 c0 -5 24 -16 68 -29 18 -6 22 -4 22 13 0 18 -6 21 -45 21
-25 0 -45 -2 -45 -5z"/>
<path d="M6392 7488 c-1 -20 -5 -45 -8 -55 -5 -14 -4 -15 5 -7 7 7 11 29 8 55
-3 42 -4 42 -5 7z"/>
<path d="M16 3778 c-20 -28 -21 -82 -1 -98 34 -28 85 15 85 73 0 48 -57 64
-84 25z"/>
<path d="M487 189 c-35 -20 -72 -122 -60 -167 5 -20 11 -23 42 -20 30 3 39 9
53 39 28 55 34 122 13 142 -19 20 -24 20 -48 6z"/>
</g>
</svg>
